<?xml version="1.0" encoding="UTF-8" standalone="no"?>
<!-- Created with Inkscape (http://www.inkscape.org/) -->

<svg
   xml:space="preserve"
   sodipodi:docname="name.svg"
   inkscape:version="1.2.2 (732a01da63, 2022-12-09)"
   id="svg5204"
   version="1.1"
   viewBox="0 0 210 297"
   height="297mm"
   width="210mm"
   xmlns:inkscape="http://www.inkscape.org/namespaces/inkscape"
   xmlns:sodipodi="http://sodipodi.sourceforge.net/DTD/sodipodi-0.dtd"
   xmlns="http://www.w3.org/2000/svg"
   xmlns:svg="http://www.w3.org/2000/svg"><sodipodi:namedview
     id="namedview5206"
     pagecolor="#ffffff"
     bordercolor="#999999"
     borderopacity="1"
     inkscape:showpageshadow="0"
     inkscape:pageopacity="0"
     inkscape:pagecheckerboard="0"
     inkscape:deskcolor="#d1d1d1"
     inkscape:document-units="mm"
     showgrid="false"
     inkscape:zoom="1.6819304"
     inkscape:cx="81.751302"
     inkscape:cy="97.507007"
     inkscape:window-width="1920"
     inkscape:window-height="1017"
     inkscape:window-x="-8"
     inkscape:window-y="-8"
     inkscape:window-maximized="1"
     inkscape:current-layer="layer1" /><defs
     id="defs5201"><rect
       x="0"
       y="23.782197"
       width="261.60416"
       height="171.23182"
       id="rect5327" /></defs><g
     inkscape:label="Layer 1"
     inkscape:groupmode="layer"
     id="layer1"><path
       style="fill:none;fill-opacity:1;stroke:#000000;stroke-width:0.311977;stroke-linecap:butt;stroke-linejoin:miter;stroke-opacity:1"
       d="m 52.596272,52.832237 h -1.559889 v -1.559889 h 1.559889 v -1.55989 -1.559888 h -1.559889 v 1.559888 h -1.55989 V 48.15257 h -1.559888 v 1.559888 1.55989 h 1.559888 v 1.559889 h -1.559888 -1.55989 v -1.559889 h -1.559889 v 1.559889 h -1.559888 -1.55989 v -1.559889 h 1.55989 v -1.55989 h -1.55989 V 48.15257 h 1.55989 1.559888 v 1.559888 h 1.559889 V 48.15257 46.59268 45.032791 h -1.559889 v 1.559889 h -1.559888 -1.55989 v -1.559889 h 1.55989 v -1.559888 h -1.55989 v -1.55989 h 1.55989 1.559888 v 1.55989 h 1.559889 v -1.55989 h 1.55989 1.559888 v 1.55989 h -1.559888 v 1.559888 1.559889 h 1.559888 v -1.559889 h 1.55989 v 1.559889 h 1.559889 v -1.559889 -1.559888 h -1.559889 v -1.55989 h 1.559889 v -1.559889 -1.559888 h -1.559889 v 1.559888 h -1.55989 -1.559888 v -1.559888 h 1.559888 v -1.55989 h -1.559888 v -1.559889 h 1.559888 1.55989 v 1.559889 h 1.559889 v -1.559889 -1.559889 h -1.559889 v -1.559889 h 1.559889 V 30.99379 29.433901 h -1.559889 v 1.559889 h -1.55989 v -1.559889 h -1.559888 v 1.559889 1.559889 h 1.559888 v 1.559889 h -1.559888 -1.55989 -1.559889 v -1.559889 h 1.559889 V 30.99379 29.433901 h -1.559889 v 1.559889 h -1.559888 v -1.559889 h -1.55989 v 1.559889 1.559889 h 1.55989 v 1.559889 h -1.55989 v 1.559889 1.559889 h 1.55989 v -1.559889 h 1.559888 1.559889 v 1.559889 h -1.559889 v 1.55989 h 1.559889 v 1.559888 h -1.559889 -1.559888 v -1.559888 h -1.55989 v 1.559888 h -1.559889 v -1.559888 h -1.559888 v 1.559888 h -1.55989 -1.559889 v -1.559888 h 1.559889 v -1.55989 h -1.559889 v -1.559889 h 1.559889 1.55989 v 1.559889 h 1.559888 v -1.559889 -1.559889 h -1.559888 v -1.559889 h 1.559888 V 30.99379 29.433901 h -1.559888 v 1.559889 h -1.55989 v -1.559889 h -1.559889 v 1.559889 1.559889 h 1.559889 v 1.559889 h -1.559889 -1.559888 -1.55989 v -1.559889 h 1.55989 V 30.99379 29.433901 h -1.55989 v 1.559889 h -1.559889 v -1.559889 h -1.559889 v 1.559889 1.559889 h 1.559889 v 1.559889 h -1.559889 v 1.559889 1.559889 h 1.559889 v -1.559889 h 1.559889 1.55989 v 1.559889 h -1.55989 v 1.55989 h 1.55989 v 1.559888 h -1.55989 -1.559889 v -1.559888 h -1.559889 v 1.559888 1.559889 h 1.559889 v 1.55989 h -1.559889 v 1.559888 1.559889 h 1.559889 v -1.559889 h 1.559889 v 1.559889 h 1.55989 v -1.559889 -1.559888 h -1.55989 v -1.55989 h 1.55989 1.559888 v 1.55989 h 1.559889 v -1.55989 h 1.55989 1.559888 v 1.55989 h -1.559888 v 1.559888 h 1.559888 v 1.559889 h -1.559888 -1.55989 v -1.559889 h -1.559889 v 1.559889 1.55989 1.559888 h 1.559889 V 48.15257 h 1.55989 1.559888 v 1.559888 h -1.559888 v 1.55989 h 1.559888 v 1.559889 h -1.559888 -1.55989 v -1.559889 h -1.559889 v 1.559889 h -1.559888 -1.55989 v -1.559889 h 1.55989 v -1.55989 -1.559888 h -1.55989 v 1.559888 H 30.757825 V 48.15257 h -1.559889 v 1.559888 1.55989 h 1.559889 v 1.559889 h -1.559889 -1.559889 v -1.559889 h -1.55989 v 1.559889 H 24.518269 22.95838 v -1.559889 h 1.559889 v -1.55989 H 22.95838 V 48.15257 h 1.559889 1.559888 v 1.559888 h 1.55989 V 48.15257 46.59268 h -1.55989 v -1.559889 h 1.55989 v -1.559888 -1.55989 h -1.55989 v 1.55989 h -1.559888 v -1.55989 H 22.95838 v 1.55989 1.559888 h 1.559889 V 46.59268 H 22.95838 21.39849 19.838602 v -1.559889 h 1.559888 v -1.559888 -1.55989 h -1.559888 v 1.55989 h -1.559889 v -1.55989 h -1.55989 v 1.55989 1.559888 h 1.55989 v 1.559889 h -1.55989 v 1.55989 1.559888 h 1.55989 V 48.15257 h 1.559889 1.559888 v 1.559888 h -1.559888 v 1.55989 h 1.559888 v 1.559889 h -1.559888 -1.559889 v -1.559889 h -1.55989 v 1.559889 h -1.559888 -1.559889 v -1.559889 h 1.559889 v -1.55989 -1.559888 h -1.559889 v 1.559888 h -1.55989 V 48.15257 h -1.559889 v 1.559888 1.55989 h 1.559889 v 1.559889 H 10.479267 8.9193781 V 51.272348 H 7.3594892 v 1.559889 H 5.7996001 4.239711 v -1.559889 h 1.5598891 v -1.55989 H 4.239711 V 48.15257 h 1.5598891 1.5598891 v 1.559888 H 8.9193781 V 48.15257 46.59268 45.032791 H 7.3594892 V 46.59268 H 5.7996001 4.239711 V 45.032791 H 5.7996001 V 43.472903 H 4.239711 v -1.55989 h 1.5598891 1.5598891 v 1.55989 h 1.5598889 v -1.55989 h 1.5598889 1.559889 v 1.55989 h -1.559889 v 1.559888 1.559889 h 1.559889 v -1.559889 h 1.55989 v 1.559889 h 1.559889 v -1.559889 -1.559888 h -1.559889 v -1.55989 h 1.559889 v -1.559889 h -1.559889 v -1.559888 h 1.559889 v -1.55989 -1.559889 h -1.559889 v 1.559889 h -1.55989 v -1.559889 h -1.559889 v 1.559889 1.55989 h 1.559889 v 1.559888 H 10.479267 8.9193781 V 38.793236 H 7.3594892 v 1.559888 H 5.7996001 4.239711 v -1.559888 h 1.5598891 v -1.55989 H 4.239711 v -1.559889 h 1.5598891 1.5598891 v 1.559889 H 8.9193781 V 35.673457 34.113568 32.553679 H 7.3594892 v 1.559889 H 5.7996001 4.239711 V 32.553679 H 5.7996001 V 30.99379 H 4.239711 v -1.559889 h 1.5598891 1.5598891 v 1.559889 h 1.5598889 v -1.559889 h 1.5598889 1.559889 v 1.559889 h -1.559889 v 1.559889 1.559889 h 1.559889 v -1.559889 h 1.55989 v 1.559889 h 1.559889 V 32.553679 30.99379 h -1.559889 v -1.559889 h 1.559889 1.559888 v 1.559889 h 1.55989 v -1.559889 h 1.559889 1.559888 v 1.559889 h -1.559888 v 1.559889 h 1.559888 v 1.559889 h -1.559888 -1.559889 v -1.559889 h -1.55989 v 1.559889 1.559889 h 1.55989 v 1.559889 h -1.55989 v 1.55989 1.559888 h 1.55989 v -1.559888 h 1.559889 v 1.559888 h 1.559888 v -1.559888 -1.55989 h -1.559888 v -1.559889 h 1.559888 1.55989 1.559889 v 1.559889 H 22.95838 v 1.55989 1.559888 h 1.559889 v -1.559888 h 1.559888 v 1.559888 h 1.55989 v -1.559888 -1.55989 h -1.55989 v -1.559889 h 1.55989 v -1.559889 -1.559889 h -1.55989 v 1.559889 H 24.518269 22.95838 v -1.559889 h 1.559889 V 30.99379 H 22.95838 v -1.559889 h 1.559889 1.559888 v 1.559889 h 1.55989 v -1.559889 -1.559889 -1.55989 h -1.55989 v 1.55989 H 24.518269 22.95838 v -1.55989 h 1.559889 V 24.754234 H 22.95838 v -1.559889 h 1.559889 1.559888 v 1.559889 h 1.55989 v -1.559889 -1.55989 h -1.55989 v -1.559888 h 1.55989 v -1.559889 -1.55989 h -1.55989 v 1.55989 h -1.559888 v -1.55989 H 22.95838 v 1.55989 1.559889 h 1.559889 v 1.559888 H 22.95838 21.39849 19.838602 v -1.559888 h 1.559888 v -1.559889 -1.55989 h -1.559888 v 1.55989 h -1.559889 v -1.55989 h -1.55989 v 1.55989 1.559889 h 1.55989 v 1.559888 h -1.55989 v 1.55989 1.559889 h 1.55989 v -1.559889 h 1.559889 1.559888 v 1.559889 h -1.559888 v 1.559888 h 1.559888 v 1.55989 h -1.559888 -1.559889 v -1.55989 h -1.55989 v 1.55989 h -1.559888 -1.559889 v -1.55989 h 1.559889 v -1.559888 -1.559889 h -1.559889 v 1.559889 h -1.55989 v -1.559889 h -1.559889 v 1.559889 1.559888 h 1.559889 v 1.55989 H 10.479267 8.9193781 v -1.55989 H 7.3594892 v 1.55989 H 5.7996001 4.239711 v -1.55989 H 5.7996001 V 24.754234 H 4.239711 v -1.559889 h 1.5598891 1.5598891 v 1.559889 h 1.5598889 v -1.559889 -1.55989 -1.559888 H 7.3594892 v 1.559888 H 5.7996001 4.239711 V 20.074567 H 5.7996001 V 18.514678 H 4.239711 v -1.55989 h 1.5598891 1.5598891 v 1.55989 h 1.5598889 v -1.55989 h 1.5598889 1.559889 v 1.55989 h -1.559889 v 1.559889 1.559888 h 1.559889 v -1.559888 h 1.55989 v 1.559888 h 1.559889 v -1.559888 -1.559889 h -1.559889 v -1.55989 h 1.559889 V 15.3949 h -1.559889 v -1.55989 h 1.559889 v -1.559889 -1.559888 h -1.559889 v 1.559888 h -1.55989 v -1.559888 h -1.559889 v 1.559888 1.559889 h 1.559889 V 15.3949 H 10.479267 8.9193781 V 13.83501 H 7.3594892 V 15.3949 H 5.7996001 4.239711 V 13.83501 H 5.7996001 V 12.275121 H 4.239711 v -1.559888 h 1.5598891 1.5598891 v 1.559888 H 8.9193781 V 10.715233 9.1553434 7.5954544 H 7.3594892 v 1.559889 H 5.7996001 4.239711 V 7.5954544 H 5.7996001 V 6.0355654 H 4.239711 V 4.4756763 H 5.7996001 7.3594892 V 6.0355654 H 8.9193781 V 4.4756763 h 1.5598889 1.559889 v 1.5598891 h -1.559889 v 1.559889 1.559889 h 1.559889 v -1.559889 h 1.55989 v 1.559889 h 1.559889 V 7.5954544 6.0355654 H 13.599046 V 4.4756763 h 1.559889 1.559888 v 1.5598891 h 1.55989 V 4.4756763 h 1.559889 1.559888 v 1.5598891 h -1.559888 v 1.559889 h 1.559888 v 1.559889 h -1.559888 -1.559889 v -1.559889 h -1.55989 v 1.559889 1.5598896 h 1.55989 v 1.559888 h -1.55989 v 1.559889 1.55989 h 1.55989 v -1.55989 h 1.559889 v 1.55989 h 1.559888 v -1.55989 -1.559889 h -1.559888 v -1.559888 h 1.559888 1.55989 1.559889 v 1.559888 H 22.95838 v 1.559889 1.55989 h 1.559889 v -1.55989 h 1.559888 v 1.55989 h 1.55989 v -1.55989 -1.559889 h -1.55989 v -1.559888 h 1.55989 V 9.1553434 7.5954544 h -1.55989 v 1.559889 H 24.518269 22.95838 v -1.559889 h 1.559889 V 6.0355654 H 22.95838 V 4.4756763 h 1.559889 1.559888 v 1.5598891 h 1.55989 V 4.4756763 h 1.559889 1.559889 v 1.5598891 h -1.559889 v 1.559889 1.559889 h 1.559889 v -1.559889 h 1.559889 v 1.559889 h 1.55989 v -1.559889 -1.559889 h -1.55989 V 4.4756763 h 1.55989 1.559888 v 1.5598891 h 1.559889 V 4.4756763 h 1.55989 1.559888 v 1.5598891 h -1.559888 v 1.559889 h 1.559888 v 1.559889 h -1.559888 -1.55989 v -1.559889 h -1.559889 v 1.559889 1.5598896 1.559888 h 1.559889 v -1.559888 h 1.55989 1.559888 v 1.559888 h -1.559888 v 1.559889 h 1.559888 v 1.55989 h -1.559888 -1.55989 v -1.55989 h -1.559889 v 1.55989 h -1.559888 -1.55989 v -1.55989 h 1.55989 v -1.559889 -1.559888 h -1.55989 v 1.559888 h -1.559889 v -1.559888 h -1.559889 v 1.559888 1.559889 h 1.559889 v 1.55989 h -1.559889 v 1.559888 1.55989 h 1.559889 v -1.55989 h 1.559889 1.55989 v 1.55989 h -1.55989 v 1.559889 h 1.55989 v 1.559888 h -1.55989 -1.559889 v -1.559888 h -1.559889 v 1.559888 1.55989 h 1.559889 v 1.559889 h -1.559889 v 1.559888 1.55989 h 1.559889 v -1.55989 h 1.559889 v 1.55989 h 1.55989 v -1.55989 -1.559888 h -1.55989 v -1.559889 h 1.55989 1.559888 1.559889 v 1.559889 h -1.559889 v 1.559888 1.55989 h 1.559889 v -1.55989 h 1.55989 v 1.55989 h 1.559888 v -1.55989 -1.559888 h -1.559888 v -1.559889 h 1.559888 v -1.55989 -1.559888 h -1.559888 v 1.559888 h -1.55989 -1.559889 v -1.559888 h 1.559889 v -1.559889 h -1.559889 v -1.55989 h 1.559889 1.55989 v 1.55989 h 1.559888 v -1.55989 h 1.559889 v 1.55989 h 1.55989 v -1.55989 h 1.559888 1.559889 v 1.55989 h -1.559889 v 1.559889 h 1.559889 v 1.559888 h -1.559889 -1.559888 v -1.559888 h -1.55989 v 1.559888 1.55989 h 1.55989 v 1.559889 h -1.55989 v 1.559888 1.55989 h 1.55989 v -1.55989 h 1.559888 v 1.55989 h 1.559889 v -1.55989 -1.559888 h -1.559889 v -1.559889 h 1.559889 1.55989 1.559888 v 1.559889 h -1.559888 v 1.559888 1.55989 h 1.559888 v -1.55989 h 1.55989 v 1.55989 h 1.559889 v -1.55989 -1.559888 h -1.559889 v -1.559889 h 1.559889 v -1.55989 -1.559888 h -1.559889 v 1.559888 h -1.55989 -1.559888 v -1.559888 h 1.559888 v -1.559889 h -1.559888 v -1.55989 h 1.559888 1.55989 v 1.55989 h 1.559889 V 16.954788 15.3949 h -1.559889 v -1.55989 h 1.559889 v -1.559889 -1.559888 h -1.559889 v 1.559888 h -1.55989 v -1.559888 h -1.559888 v 1.559888 1.559889 h 1.559888 v 1.55989 h -1.559888 -1.55989 v -1.55989 h -1.559889 v 1.55989 h -1.559888 -1.55989 v -1.55989 h 1.55989 v -1.559889 h -1.55989 v -1.559888 h 1.55989 1.559888 v 1.559888 h 1.559889 V 10.715233 9.1553434 7.5954544 h -1.559889 v 1.559889 h -1.559888 -1.55989 v -1.559889 h 1.55989 v -1.559889 h -1.55989 V 4.4756763 h 1.55989 1.559888 v 1.5598891 h 1.559889 V 4.4756763 h 1.55989 1.559888 v 1.5598891 h -1.559888 v 1.559889 1.559889 h 1.559888 v -1.559889 h 1.55989 v 1.559889 h 1.559889 V 7.5954544 6.0355654 H 51.036383 V 4.4756763 h 1.559889"
       id="path574" /></g></svg>
