<?xml version="1.0" encoding="UTF-8" standalone="no"?>
<!-- Created with Inkscape (http://www.inkscape.org/) -->

<svg
   width="210mm"
   height="297mm"
   viewBox="0 0 210 297"
   version="1.1"
   id="svg1"
   inkscape:version="1.3.2 (091e20e, 2023-11-25, custom)"
   sodipodi:docname="engrave.svg"
   xmlns:inkscape="http://www.inkscape.org/namespaces/inkscape"
   xmlns:sodipodi="http://sodipodi.sourceforge.net/DTD/sodipodi-0.dtd"
   xmlns="http://www.w3.org/2000/svg"
   xmlns:svg="http://www.w3.org/2000/svg">
  <sodipodi:namedview
     id="namedview1"
     pagecolor="#ffffff"
     bordercolor="#666666"
     borderopacity="1.0"
     inkscape:showpageshadow="2"
     inkscape:pageopacity="0.0"
     inkscape:pagecheckerboard="0"
     inkscape:deskcolor="#d1d1d1"
     inkscape:document-units="mm"
     inkscape:zoom="1.9880533"
     inkscape:cx="231.88513"
     inkscape:cy="129.52369"
     inkscape:window-width="1920"
     inkscape:window-height="1009"
     inkscape:window-x="-8"
     inkscape:window-y="-8"
     inkscape:window-maximized="1"
     inkscape:current-layer="layer1" />
  <defs
     id="defs1">
    <inkscape:path-effect
       effect="rough_hatches"
       id="path-effect53"
       is_visible="true"
       lpeversion="1.2"
       direction="31.635645,26.124309 , 4.7706185,5.1903789"
       dist_rdm="0;1"
       growth="0"
       do_bend="false"
       bender="28.973912,31.656655 , 3.4029604,3.3271659"
       bottom_edge_variation="0;1"
       top_edge_variation="0;1"
       bottom_tgt_variation="0;1"
       top_tgt_variation="0;1"
       scale_bf="1"
       scale_bb="1"
       scale_tf="1"
       scale_tb="1"
       top_smth_variation="0;1"
       bottom_smth_variation="0;1"
       fat_output="false"
       stroke_width_top="1"
       stroke_width_bottom="1"
       front_thickness="1"
       back_thickness="0.75" />
    <inkscape:path-effect
       effect="rough_hatches"
       id="path-effect51"
       is_visible="true"
       lpeversion="1.2"
       direction="31.635645,26.124309 , 4.7706185,5.1903789"
       dist_rdm="0;1"
       growth="0"
       do_bend="false"
       bender="28.973912,31.656655 , 3.4029604,3.3271659"
       bottom_edge_variation="0;1"
       top_edge_variation="0;1"
       bottom_tgt_variation="0;1"
       top_tgt_variation="0;1"
       scale_bf="1"
       scale_bb="1"
       scale_tf="1"
       scale_tb="1"
       top_smth_variation="0;1"
       bottom_smth_variation="0;1"
       fat_output="false"
       stroke_width_top="1"
       stroke_width_bottom="1"
       front_thickness="1"
       back_thickness="0.75" />
    <inkscape:path-effect
       effect="rough_hatches"
       id="path-effect50"
       is_visible="true"
       lpeversion="1.2"
       direction="28.973912,26.656655 , 13.02199,0"
       dist_rdm="0;600492951"
       growth="0"
       do_bend="false"
       bender="28.973912,31.656655 , 5,0"
       bottom_edge_variation="0;1"
       top_edge_variation="0;1"
       bottom_tgt_variation="0;1"
       top_tgt_variation="0;1"
       scale_bf="2"
       scale_bb="2"
       scale_tf="1"
       scale_tb="1"
       top_smth_variation="0;1"
       bottom_smth_variation="0;1"
       fat_output="false"
       stroke_width_top="2"
       stroke_width_bottom="2"
       front_thickness="2"
       back_thickness="2" />
  </defs>
  <g
     inkscape:label="Layer 1"
     inkscape:groupmode="layer"
     id="layer1">
    <g
       id="g50"
       style="display:inline;stroke-width:0.4;stroke-dasharray:none">
      <path
         d="m 35.177966,61.169202 c 0,0 1.406977,-1.293191 1.406977,-2.250709 0,-0.957519 -3.490515,2.250709 -4.532284,2.250709 -1.04177,0 4.532284,-5.123264 4.532284,-6.080783 0,-0.957518 -7.657592,6.080783 -8.699361,6.080783 -1.041769,0 8.699361,-8.953338 8.699361,-9.910856 0,-0.957519 -11.824669,9.910856 -12.866438,9.910856 -1.041769,0 12.866438,-12.783412 12.866438,-13.74093 0,-0.957519 -15.222054,13.033486 -15.222054,12.075967 0,-0.957518 15.222054,-14.948522 15.222054,-15.906041 0,-0.957518 -15.222054,13.033486 -15.222054,12.075967 0,-0.957518 15.222054,-14.948522 15.222054,-15.906041 0,-0.957518 -15.222054,13.033486 -15.222054,12.075968 0,-0.957519 15.222054,-14.948523 15.222054,-15.906041 0,-0.957519 -15.222054,13.033485 -15.222054,12.075967 0,-0.957518 15.222054,-14.948522 15.222054,-15.906041 0,-0.957518 -15.222054,13.033486 -15.222054,12.075967 0,-0.957518 15.222054,-14.948522 15.222054,-15.906041 0,-0.957518 -15.222054,13.033486 -15.222054,12.075968 0,-0.957519 15.222054,-14.948523 15.222054,-15.906041 0,-0.957519 -15.222054,13.033485 -15.222054,12.075967 0,-0.957518 15.222054,-14.948522 15.222054,-15.906041 0,-0.957518 -15.222054,13.033486 -15.222054,12.075967 0,-0.957518 15.222054,-14.948522 15.222054,-15.906041 0,-0.957518 -15.222054,13.033486 -15.222054,12.075968 0,-0.957519 15.222054,-14.948523 15.222054,-14.948523 m 17.053983,-0.354485 c 0,0 1.378966,-1.267445 1.378966,-2.224964 0,-0.957518 -3.462504,2.224964 -4.504274,2.224964 -1.041769,0 4.504274,-5.0975189 4.504274,-6.0550373 0,-0.9575184 -7.629581,6.0550373 -8.67135,6.0550373 -1.04177,0 8.67135,-8.9275926 8.67135,-9.885111 0,-0.9575184 -11.796658,9.885111 -12.838427,9.885111 -1.041769,0 11.379291,-11.4165343 10.337521,-11.4165343 -1.041769,0 -13.462829,11.4165343 -14.504598,11.4165343 -1.041769,0 11.379291,-11.4165343 10.337522,-11.4165343 -1.04177,0 -26.987021,23.8469863 -26.987021,22.8894683 0,-0.957518 23.861713,-22.8894683 22.819944,-22.8894683 -1.041769,0 -22.819944,20.0169133 -22.819944,19.0593943 0,-0.957518 19.694636,-19.0593943 18.652867,-19.0593943 -1.041769,0 -18.652867,16.1868393 -18.652867,15.2293213 0,-0.957519 15.52756,-15.2293213 14.48579,-15.2293213 -1.041769,0 -14.48579,12.3567653 -15.016079,11.8866503 -0.530288,-0.470116 11.890772,-11.8866503 10.849003,-11.8866503 -1.04177,0 -13.46283,11.4165343 -14.504599,11.4165343 -1.041769,0 11.379291,-11.4165343 10.337522,-11.4165343 -1.041769,0 -13.462829,11.4165343 -14.504599,11.4165343 -1.041769,0 11.379291,-11.4165343 10.337522,-11.4165343 -1.041769,0 -13.4628293,11.4165343 -14.5045985,11.4165343 -1.0417692,0 11.3792905,-11.4165343 10.3375215,-11.4165343 -1.041769,0 -13.462829,11.4165343 -14.5045982,11.4165343 -1.0417692,0 11.3792912,-11.4165343 10.3375212,-11.4165343 -1.041769,0 -12.083363,10.1486293 -12.083363,9.1911113 0,-0.957518 8.958056,-9.1911113 7.916287,-9.1911113 -1.0417696,0 -7.916287,6.318556 -7.916287,5.3610376 0,-0.9575184 4.790979,-5.3610376 3.7492098,-5.3610376 -1.0417692,0 -3.7492098,2.4884824 -3.7492098,1.5309639 0,-0.9575184 0.6239022,-1.5309639 0.6239022,-1.5309639"
         id="text50"
         style="font-weight:bold;font-size:11.2889px;line-height:1.25;font-family:Sans;-inkscape-font-specification:'Sans, Bold';font-variant-ligatures:none;display:inline;fill:none;stroke:#000000;stroke-width:0.4;stroke-dasharray:none"
         aria-label="T" />
    </g>
    <g
       id="g51"
       style="stroke-width:0.4;stroke-dasharray:none">
      <path
         d="M 55.017892,13.560642 H 36.584943 v 47.60856 H 21.362889 V 13.560642 H 2.929932 V 2.1441077 h 52.08796 z"
         id="path51"
         style="font-weight:bold;font-size:11.2889px;line-height:1.25;font-family:Sans;-inkscape-font-specification:'Sans, Bold';font-variant-ligatures:none;display:inline;stroke-width:0.4;fill:none;stroke:#000000;stroke-dasharray:none"
         aria-label="T" />
    </g>
  </g>
</svg>
