<?xml version="1.0" encoding="UTF-8" standalone="no"?>
<!-- Created with Inkscape (http://www.inkscape.org/) -->

<svg
   width="210mm"
   height="297mm"
   viewBox="0 0 210 297"
   version="1.1"
   id="svg1"
   xml:space="preserve"
   sodipodi:docname="gosper.svg"
   inkscape:version="1.3.2 (091e20e, 2023-11-25, custom)"
   xmlns:inkscape="http://www.inkscape.org/namespaces/inkscape"
   xmlns:sodipodi="http://sodipodi.sourceforge.net/DTD/sodipodi-0.dtd"
   xmlns="http://www.w3.org/2000/svg"
   xmlns:svg="http://www.w3.org/2000/svg"><sodipodi:namedview
     id="namedview1"
     pagecolor="#ffffff"
     bordercolor="#666666"
     borderopacity="1.0"
     inkscape:showpageshadow="2"
     inkscape:pageopacity="0.0"
     inkscape:pagecheckerboard="0"
     inkscape:deskcolor="#d1d1d1"
     inkscape:document-units="mm"
     showguides="false"
     inkscape:zoom="1.9880533"
     inkscape:cx="196.92631"
     inkscape:cy="137.57176"
     inkscape:window-width="1920"
     inkscape:window-height="1009"
     inkscape:window-x="-8"
     inkscape:window-y="-8"
     inkscape:window-maximized="1"
     inkscape:current-layer="svg1" /><defs
     id="defs1" /><g
     inkscape:label="Layer 1"
     inkscape:groupmode="layer"
     id="layer1" /><path
     style="fill:none;fill-opacity:1;stroke:#000000;stroke-width:0.264583;stroke-linecap:butt;stroke-linejoin:miter;stroke-opacity:1"
     d="m 0.1322915,28.010386 v -2.645833 l 2.2913592,-1.322917 v 2.645833 l 2.291359,1.322917 v -2.645833 -2.645834 l -2.291359,-1.322916 v -2.645834 l 2.291359,-1.322916 2.291358,-1.322917 v 2.645833 l -2.291358,1.322917 2.291358,1.322917 2.291359,-1.322917 2.2913593,1.322917 v 2.645833 2.645833 L 9.2977267,25.364553 v -2.645834 l -2.291359,1.322917 v 2.645833 l 2.291359,1.322917 v 2.645833 l -2.291359,-1.322916 -2.291358,1.322916 2.291358,1.322917 2.291359,1.322917 2.2913593,-1.322917 v -2.645833 l 2.291359,-1.322917 v 2.645833 l 2.291359,1.322917 v -2.645833 -2.645834 l -2.291359,-1.322916 v -2.645834 l 2.291359,-1.322916 v 2.645833 l 2.291359,1.322917 v -2.645834 -2.645833 l -2.291359,-1.322917 -2.291359,1.322917 -2.291359,-1.322917 -2.2913593,-1.322916 2.2913593,-1.322917 2.291359,1.322917 v -2.645834 l -2.291359,-1.322916 v -2.645834 l 2.291359,-1.3229164 v 2.6458334 l 2.291359,1.322917 V 10.812469 8.1666356 l -2.291359,-1.322917 v -2.645833 l 2.291359,-1.3229167 2.291359,-1.3229166 v 2.6458333 l -2.291359,1.322917 2.291359,1.322916 2.291359,-1.322916 V 2.8749689 L 23.045881,1.5520523 25.33724,0.22913559 V 2.8749689 l -2.291359,1.3229167 2.291359,1.322917 2.291358,-1.322917 2.291359,1.322917 v 2.645833 2.6458334 L 27.628598,9.4895526 v -2.645834 l -2.291358,1.322917 v 2.6458334 l -2.291359,1.322917 -2.291359,-1.322917 2.291359,-1.3229164 v -2.645834 l -2.291359,1.322917 -2.291359,1.322917 v 2.6458334 l 2.291359,1.322917 v 2.645833 l -2.291359,-1.322917 -2.291359,1.322917 2.291359,1.322917 2.291359,1.322916 2.291359,-1.322916 v -2.645834 l 2.291359,-1.322916 2.291358,-1.322917 v 2.645833 l -2.291358,1.322917 2.291358,1.322917 2.291359,-1.322917 2.291359,1.322917 v 2.645833 l -2.291359,-1.322917 -2.291359,1.322917 2.291359,1.322917 2.291359,1.322916 2.291359,-1.322916 2.291359,1.322916 v 2.645834 2.645833 l -2.291359,-1.322917 v -2.645833 l -2.291359,1.322917 v 2.645833 l 2.291359,1.322917 v 2.645833 2.645833 l -2.291359,-1.322916 v -2.645834 l -2.291359,1.322917 v 2.645833 l -2.291359,1.322917 -2.291358,-1.322917 -2.291359,-1.322916 2.291359,-1.322917 2.291358,1.322917 V 30.656219 L 25.33724,29.333303 v -2.645834 l 2.291358,-1.322916 v 2.645833 l 2.291359,1.322917 v -2.645834 -2.645833 l -2.291359,-1.322917 -2.291358,1.322917 -2.291359,-1.322917 2.291359,-1.322916 v -2.645834 l -2.291359,1.322917 -2.291359,1.322917 v 2.645833 l 2.291359,1.322917 v 2.645833 2.645833 l -2.291359,-1.322916 v -2.645834 l -2.291359,1.322917 v 2.645833 l 2.291359,1.322917 v 2.645833 l -2.291359,-1.322916 -2.291359,1.322916 2.291359,1.322917 2.291359,1.322917 2.291359,-1.322917 2.291359,1.322917 v 2.645833 2.645833 l -2.291359,-1.322916 v -2.645834 l -2.291359,1.322917 v 2.645833 l -2.291359,1.322917 -2.291359,-1.322917 -2.291359,-1.322916 2.291359,-1.322917 2.291359,1.322917 v -2.645834 l -2.291359,-1.322916 -2.291359,1.322916 -2.291359,-1.322916 2.291359,-1.322917 v -2.645833 l -2.291359,1.322916 -2.2913593,1.322917 v 2.645833 l 2.2913593,1.322917 v 2.645833 l -2.2913593,-1.322916 -2.291359,1.322916 2.291359,1.322917 2.2913593,1.322917 2.291359,-1.322917 2.291359,1.322917 v 2.645833 l -2.291359,-1.322917 -2.291359,1.322917 2.291359,1.322917 2.291359,1.322916 2.291359,-1.322916 v -2.645834 l 2.291359,-1.322916 2.291359,-1.322917 v 2.645833 l -2.291359,1.322917 2.291359,1.322917 2.291359,-1.322917 v -2.645833 l 2.291358,-1.322917 v 2.645833 l 2.291359,1.322917 v -2.645833 -2.645834 l -2.291359,-1.322916 v -2.645834 l 2.291359,-1.322916 2.291359,-1.322917 v 2.645833 l -2.291359,1.322917 2.291359,1.322917 2.291359,-1.322917 2.291359,1.322917 v 2.645833 2.645833 l -2.291359,-1.322916 v -2.645834 l -2.291359,1.322917 v 2.645833 l 2.291359,1.322917 v 2.645833 l -2.291359,-1.322916 -2.291359,1.322916 2.291359,1.322917 2.291359,1.322917 2.291359,-1.322917 v -2.645833 l 2.291359,-1.322917 v 2.645833 l 2.291359,1.322917 v -2.645833 -2.645834 l -2.291359,-1.322916 v -2.645834 l 2.291359,-1.322916 v 2.645833 l 2.291359,1.322917 v -2.645834 -2.645833 l -2.291359,-1.322917 -2.291359,1.322917 -2.291359,-1.322917 -2.291359,-1.322916 2.291359,-1.322917 2.291359,1.322917 v -2.645834 l -2.291359,-1.322916 v -2.645834 l 2.291359,-1.322916 v 2.645833 l 2.291359,1.322917 v -2.645834 -2.645833 l -2.291359,-1.322917 v -2.645833 l 2.291359,-1.322917 2.291359,-1.322916 v 2.645833 l -2.291359,1.322917 2.291359,1.322916 2.291358,-1.322916 2.291359,1.322916 v 2.645834 2.645833 l -2.291359,-1.322917 v -2.645833 l -2.291358,1.322917 v 2.645833 l 2.291358,1.322917 v 2.645833 l -2.291358,-1.322917 -2.291359,1.322917 2.291359,1.322917 2.291358,1.322916 2.291359,-1.322916 v -2.645834 l 2.291359,-1.322916 v 2.645833 l 2.291359,1.322917 v -2.645834 -2.645833 l -2.291359,-1.322917 v -2.645833 l 2.291359,-1.322917 v 2.645834 l 2.291359,1.322916 v -2.645833 -2.645833 l -2.291359,-1.322917 -2.291359,1.322917 -2.291359,-1.322917 -2.291359,-1.322917 2.291359,-1.322916 2.291359,1.322916 v -2.645833 l -2.291359,-1.322917 -2.291359,1.322917 -2.291358,-1.322917 2.291358,-1.322916 v -2.645834 l -2.291358,1.322917 -2.291359,1.322917 v 2.645833 l -2.291359,1.322917 -2.291359,-1.322917 -2.291359,-1.322917 2.291359,-1.322916 2.291359,1.322916 v -2.645833 l -2.291359,-1.322917 -2.291359,1.322917 -2.291359,-1.322917 -2.291359,-1.322916 2.291359,-1.322917 2.291359,1.322917 V 10.812469 L 32.211316,9.4895526 v -2.645834 l 2.291359,-1.322916 2.291359,-1.322917 v 2.645833 l -2.291359,1.322917 2.291359,1.322917 2.291359,-1.322917 2.291359,1.322917 v 2.6458334 l -2.291359,-1.322917 -2.291359,1.322917 2.291359,1.322917 2.291359,1.322916 2.291359,-1.322916 v -2.645834 l 2.291358,-1.3229164 v 2.6458334 l 2.291359,1.322917 V 10.812469 8.1666356 l -2.291359,-1.322917 -2.291358,1.322917 -2.291359,-1.322917 -2.291359,-1.322916 2.291359,-1.322917 2.291359,1.322917 V 2.8749689 L 41.376752,1.5520523"
     id="path1" /></svg>
