<?xml version="1.0" encoding="UTF-8" standalone="no"?>
<!-- Created with Inkscape (http://www.inkscape.org/) -->

<svg
   width="38.49799mm"
   height="21.633366mm"
   viewBox="0 0 38.49799 21.633366"
   version="1.1"
   id="svg1"
   inkscape:version="1.3.2 (091e20e, 2023-11-25, custom)"
   sodipodi:docname="hello.svg"
   xmlns:inkscape="http://www.inkscape.org/namespaces/inkscape"
   xmlns:sodipodi="http://sodipodi.sourceforge.net/DTD/sodipodi-0.dtd"
   xmlns="http://www.w3.org/2000/svg"
   xmlns:svg="http://www.w3.org/2000/svg">
  <sodipodi:namedview
     id="namedview1"
     pagecolor="#ffffff"
     bordercolor="#666666"
     borderopacity="1.0"
     inkscape:showpageshadow="2"
     inkscape:pageopacity="0.0"
     inkscape:pagecheckerboard="0"
     inkscape:deskcolor="#d1d1d1"
     inkscape:document-units="mm"
     inkscape:zoom="5.623064"
     inkscape:cx="89.719769"
     inkscape:cy="39.924853"
     inkscape:window-width="1920"
     inkscape:window-height="1009"
     inkscape:window-x="-8"
     inkscape:window-y="-8"
     inkscape:window-maximized="1"
     inkscape:current-layer="layer1" />
  <defs
     id="defs1">
    <rect
       x="155.07561"
       y="88.208138"
       width="362.79153"
       height="109.54882"
       id="rect1" />
  </defs>
  <g
     inkscape:label="Layer 1"
     inkscape:groupmode="layer"
     id="layer1"
     transform="translate(-1.5734547,-2.2044197)">
    <path
       d="M 1.17553 9.55942 C 1.28277 8.96684 1.39002 8.37427 1.49726 7.7817 L 1.81915 6.00311 C 1.92637 5.41069 2.03359 4.81826 2.14081 4.22583 C 2.24802 3.6334 2.35524 3.04098 2.46246 2.44855 C 2.41166 2.72419 2.36086 2.99982 2.31006 3.27546 C 2.25931 3.55083 2.20856 3.82619 2.15781 4.10156 C 2.10699 4.37733 2.05616 4.65311 2.00534 4.92888 C 1.95451 5.20465 1.90369 5.48042 1.85286 5.75619 L 2.98175 5.75619 L 4.11119 5.75619 L 5.2398 5.75619 L 6.36841 5.75619 L 6.52081 4.93775 L 6.67307 4.1201 L 6.82554 3.30126 C 6.87636 3.02831 6.92719 2.75536 6.97801 2.48242 L 6.65628 4.25167 L 6.33439 6.02178 L 6.01274 7.7906 C 5.90552 8.3802 5.7983 8.96981 5.69108 9.55942"
       style="fill:none;stroke:#000000;stroke-width:0.00273417in;stroke-linecap:round;stroke-linejoin:round"
       id="path1" />
    <path
       d="M 12.5209 9.4533 L 11.5782 9.4533 L 10.6365 9.4533 L 9.69346 9.4533 L 8.75038 9.4533 C 8.804 9.14803 8.85763 8.84276 8.91125 8.53749 C 8.96482 8.23252 9.01839 7.92755 9.07196 7.62257 C 9.1256 7.31715 9.17925 7.01173 9.2329 6.70632 C 9.28655 6.4009 9.3402 6.09548 9.39385 5.79006 L 10.1756 5.79006 L 10.9566 5.79006 L 11.7387 5.79006 L 12.5209 5.79006 L 11.7391 5.79006 L 10.9581 5.79006 L 10.176 5.79006 L 9.39385 5.79006 L 9.53496 4.98008 L 9.67593 4.17089 L 9.81711 3.36052 L 9.95829 2.55015 L 10.8755 2.55015 L 11.7918 2.55015 L 12.7095 2.55015 L 13.6272 2.55015"
       style="fill:none;stroke:#000000;stroke-width:0.00273417in;stroke-linecap:round;stroke-linejoin:round"
       id="path2" />
    <path
       d="M 16.0881 2.41468 C 15.9837 3.00123 15.8793 3.58778 15.7749 4.17434 C 15.6704 4.76117 15.5659 5.34801 15.4615 5.93485 C 15.3571 6.52126 15.2527 7.10767 15.1483 7.69408 C 15.0439 8.28048 14.9395 8.86689 14.8351 9.4533 L 15.7241 9.4533 L 16.6122 9.4533 L 17.5016 9.4533 L 18.3911 9.4533"
       style="fill:none;stroke:#000000;stroke-width:0.00273417in;stroke-linecap:round;stroke-linejoin:round"
       id="path3" />
    <path
       d="M 21.631 2.41468 C 21.5266 3.00123 21.4222 3.58778 21.3177 4.17434 C 21.2133 4.76117 21.1088 5.34801 21.0043 5.93485 C 20.8999 6.52126 20.7955 7.10767 20.6911 7.69408 C 20.5867 8.28048 20.4823 8.86689 20.3779 9.4533 L 21.2669 9.4533 L 22.1551 9.4533 L 23.0445 9.4533 L 23.9339 9.4533"
       style="fill:none;stroke:#000000;stroke-width:0.00273417in;stroke-linecap:round;stroke-linejoin:round"
       id="path4" />
    <path
       d="M 28.1672 9.55942 C 28.3479 9.55692 28.5222 9.5363 28.6911 9.50053 C 28.864 9.46391 29.0313 9.41142 29.1942 9.34624 C 29.3564 9.28132 29.5141 9.2038 29.6686 9.11685 C 29.8206 9.03124 29.9695 8.93649 30.1161 8.8356 C 30.2661 8.69476 30.4071 8.54698 30.5383 8.39219 C 30.6708 8.23583 30.7931 8.07231 30.9043 7.90157 C 31.0156 7.73075 31.1156 7.5527 31.2033 7.36735 C 31.2897 7.18488 31.3643 6.99533 31.4259 6.79864 C 31.5291 6.48103 31.6142 6.14263 31.6683 5.79753 C 31.7217 5.45669 31.7448 5.10931 31.7251 4.76897 C 31.705 4.42156 31.6403 4.08149 31.5178 3.76318 C 31.3966 3.44858 31.219 3.15523 30.9719 2.89708 C 30.798 2.73766 30.6048 2.61683 30.3998 2.53102 C 30.1893 2.4429 29.9664 2.3917 29.7393 2.37351 C 29.514 2.35547 29.2845 2.36992 29.0588 2.41305 C 28.8367 2.45551 28.6182 2.52578 28.411 2.62024 C 28.1281 2.72347 27.8709 2.87114 27.6391 3.05203 C 27.4067 3.23333 27.1999 3.44799 27.0182 3.68471 C 26.8385 3.91879 26.6835 4.17443 26.5526 4.4407 C 26.4207 4.70907 26.3135 4.98823 26.2305 5.267 C 26.1497 5.57294 26.0789 5.89527 26.033 6.22216 C 25.9875 6.54587 25.9665 6.87406 25.9843 7.19526 C 26.0026 7.52439 26.0617 7.84619 26.177 8.14829 C 26.2901 8.44455 26.4574 8.72188 26.6935 8.96864 C 26.7831 9.07799 26.885 9.16967 26.996 9.24566 C 27.109 9.32304 27.2314 9.38416 27.3599 9.4311 C 27.4879 9.47786 27.6219 9.51054 27.7587 9.53123 C 27.8933 9.5516 28.0305 9.56034 28.1672 9.55942 L 28.1672 9.55942 L 28.1672 9.55942 L 28.1672 9.55942 Z"
       style="fill:none;stroke:#000000;stroke-width:0.00273417in;stroke-linecap:round;stroke-linejoin:round"
       id="path5" />
    <path
       d="M 5.9733 16.5257 C 6.00623 17.1241 6.03916 17.7225 6.07208 18.3209 C 6.10502 18.9196 6.13796 19.5183 6.1709 20.117 C 6.20382 20.7152 6.23674 21.3135 6.26966 21.9117 C 6.30257 22.51 6.33549 23.1082 6.36841 23.7065 C 6.47588 23.6495 6.55627 23.5602 6.62137 23.4528 C 6.68082 23.3547 6.72751 23.2414 6.77044 23.1237 C 6.81153 23.011 6.84916 22.8942 6.8912 22.7826 C 6.93561 22.6648 6.98494 22.5528 7.04846 22.4577 C 7.26461 21.9662 7.48075 21.4747 7.6969 20.9832 C 7.91314 20.4914 8.12939 19.9997 8.34563 19.5079 C 8.56172 19.0165 8.77781 18.5251 8.99391 18.0337 C 9.21001 17.5424 9.42612 17.051 9.64223 16.5596 C 9.74939 16.6035 9.80345 16.7051 9.83025 16.8364 C 9.85118 16.9389 9.85548 17.0595 9.85545 17.1848 C 9.85541 17.3009 9.85166 17.421 9.85397 17.5346 C 9.85659 17.6633 9.867 17.7835 9.89943 17.8798 C 9.94008 18.3654 9.98073 18.8509 10.0214 19.3365 C 10.062 19.8223 10.1027 20.3081 10.1434 20.7939 C 10.184 21.2794 10.2247 21.7648 10.2653 22.2503 C 10.3059 22.7357 10.3466 23.2212 10.3872 23.7066 C 10.4998 23.6683 10.5802 23.5826 10.6433 23.4712 C 10.6975 23.3754 10.7388 23.2607 10.7766 23.1406 C 10.8119 23.028 10.8442 22.9108 10.8809 22.8002 C 10.921 22.6796 10.9663 22.567 11.027 22.4769 C 11.2257 21.981 11.4245 21.485 11.6234 20.9891 C 11.8223 20.4929 12.0212 19.9968 12.2201 19.5006 C 12.4188 19.0048 12.6176 18.509 12.8164 18.0131 C 13.0151 17.5173 13.2139 17.0215 13.4126 16.5257"
       style="fill:none;stroke:#000000;stroke-width:0.00273417in;stroke-linecap:round;stroke-linejoin:round"
       id="path6" />
    <path
       d="M 16.6526 23.6704 C 16.8262 23.6665 16.9942 23.6471 17.1575 23.6141 C 17.3246 23.5803 17.4867 23.5322 17.6445 23.4718 C 17.8023 23.4115 17.9557 23.3389 18.1056 23.2561 C 18.2519 23.1751 18.3948 23.0844 18.5349 22.9858 C 18.6937 22.8512 18.8421 22.7063 18.9795 22.5521 C 19.1176 22.3972 19.2445 22.233 19.3594 22.0605 C 19.4739 21.8887 19.5765 21.7088 19.6665 21.5218 C 19.7557 21.3362 19.8325 21.1438 19.896 20.9456 C 19.9962 20.6405 20.0809 20.3185 20.1383 19.9902 C 20.1951 19.6651 20.2251 19.3339 20.2167 19.0071 C 20.2081 18.6751 20.1599 18.3476 20.06 18.0357 C 19.9612 17.7275 19.8119 17.4345 19.6003 17.1674 C 19.4544 16.9989 19.2825 16.8603 19.0939 16.7523 C 18.9037 16.6434 18.6966 16.5657 18.4818 16.5199 C 18.2686 16.4745 18.048 16.4606 17.8292 16.479 C 17.612 16.4973 17.3966 16.5473 17.1918 16.63 C 16.8717 16.7111 16.5794 16.8473 16.3154 17.0248 C 16.0491 17.204 15.8116 17.4253 15.6035 17.6747 C 15.3982 17.9208 15.2214 18.1942 15.0736 18.4814 C 14.9247 18.7709 14.8053 19.0744 14.7158 19.378 C 14.6382 19.6733 14.5706 19.98 14.5252 20.2899 C 14.4799 20.599 14.4567 20.9114 14.4676 21.2192 C 14.4788 21.5325 14.5253 21.841 14.62 22.1363 C 14.7128 22.4259 14.852 22.7028 15.0495 22.9592 C 15.1503 23.0793 15.2595 23.1844 15.3764 23.2743 C 15.4981 23.3679 15.6281 23.4451 15.7656 23.5058 C 15.9034 23.5666 16.0487 23.6108 16.2006 23.6382 C 16.3456 23.6643 16.4965 23.6751 16.6526 23.6704 L 16.6526 23.6704 L 16.6526 23.6704 L 16.6526 23.6704 Z"
       style="fill:none;stroke:#000000;stroke-width:0.00273417in;stroke-linecap:round;stroke-linejoin:round"
       id="path7" />
    <path
       d="M 21.9809 23.7065 C 22.0872 23.1137 22.1935 22.521 22.2999 21.9282 C 22.4062 21.3352 22.5126 20.7421 22.6189 20.1491 C 22.7252 19.5565 22.8315 18.9639 22.9378 18.3712 C 23.044 17.7786 23.1503 17.186 23.2565 16.5934 C 23.5435 16.6139 23.8386 16.6071 24.1353 16.5968 C 24.4291 16.5867 24.7246 16.5731 25.0156 16.5793 C 25.3132 16.5857 25.6061 16.6127 25.8878 16.685 C 26.1652 16.7563 26.4316 16.8715 26.6809 17.0543 C 26.7637 17.153 26.8338 17.2612 26.8892 17.3757 C 26.9454 17.4918 26.9863 17.6145 27.0099 17.7404 C 27.0334 17.8658 27.0398 17.9944 27.0268 18.1232 C 27.0142 18.248 26.9835 18.3729 26.9327 18.4951 C 26.8915 18.7385 26.8021 18.9581 26.6768 19.1526 C 26.5484 19.3518 26.3822 19.5245 26.1913 19.6693 C 26.0043 19.8112 25.7936 19.9262 25.5716 20.013 C 25.3495 20.0998 25.1161 20.1583 24.8837 20.187 C 24.6993 20.2047 24.5139 20.2141 24.328 20.2187 C 24.1426 20.2232 23.9567 20.2229 23.7706 20.2209 C 23.5851 20.219 23.3993 20.2156 23.2138 20.2139 C 23.0283 20.2122 22.843 20.2122 22.6582 20.2172 L 23.155 20.2172 L 23.6527 20.2172 L 24.1489 20.2172 L 24.6451 20.2172 C 24.7665 20.508 24.8878 20.7987 25.0092 21.0895 C 25.1304 21.38 25.2517 21.6705 25.3729 21.961 C 25.4943 22.2519 25.6157 22.5428 25.7371 22.8337 C 25.8585 23.1247 25.9799 23.4156 26.1013 23.7065"
       style="fill:none;stroke:#000000;stroke-width:0.00273417in;stroke-linecap:round;stroke-linejoin:round"
       id="path8" />
    <path
       d="M 29.8491 16.5257 C 29.7447 17.1123 29.6403 17.6988 29.5359 18.2854 C 29.4315 18.8722 29.327 19.459 29.2225 20.0459 C 29.1181 20.6323 29.0137 21.2187 28.9093 21.8051 C 28.8049 22.3915 28.7005 22.9779 28.5961 23.5643 L 29.4851 23.5643 L 30.3733 23.5643 L 31.2627 23.5643 L 32.1521 23.5643"
       style="fill:none;stroke:#000000;stroke-width:0.00273417in;stroke-linecap:round;stroke-linejoin:round"
       id="path9" />
    <path
       d="M 34.1391 23.5643 C 34.2436 22.9862 34.348 22.4081 34.4524 21.8301 C 34.5569 21.2517 34.6614 20.6733 34.7658 20.095 C 34.8702 19.517 34.9746 18.9391 35.079 18.3611 C 35.1834 17.7832 35.2878 17.2052 35.3922 16.6273 C 35.6866 16.638 35.9967 16.6272 36.3098 16.6208 C 36.6164 16.6146 36.9258 16.6126 37.2261 16.6396 C 37.5372 16.6674 37.8384 16.7262 38.1164 16.8432 C 38.3879 16.9574 38.6373 17.1272 38.8521 17.3779 C 39.0298 17.5809 39.157 17.8074 39.2437 18.0482 C 39.3314 18.2916 39.3779 18.5498 39.3935 18.8132 C 39.4088 19.071 39.3946 19.3339 39.3608 19.5932 C 39.3265 19.8555 39.2721 20.1142 39.2077 20.3601 C 39.1659 20.609 39.1006 20.8547 39.014 21.0931 C 38.9276 21.3308 38.8201 21.5612 38.6937 21.7802 C 38.5668 22.0001 38.4209 22.2086 38.2582 22.4013 C 38.0943 22.5955 37.9133 22.7738 37.7177 22.9319 C 37.4889 23.0809 37.2492 23.1988 37.0017 23.2908 C 36.7505 23.3842 36.4912 23.451 36.2272 23.4967 C 35.9646 23.5423 35.6974 23.567 35.4288 23.5763 C 35.1612 23.5857 34.8922 23.5799 34.6251 23.5643 L 34.5036 23.5643 L 34.3812 23.5643 L 34.2601 23.5643 L 34.1391 23.5643 L 34.1391 23.5643 L 34.1391 23.5643 L 34.1391 23.5643 Z"
       style="fill:none;stroke:#000000;stroke-width:0.00273417in;stroke-linecap:round;stroke-linejoin:round"
       id="path10" />
  </g>
</svg>
