<?xml version="1.0" encoding="UTF-8" standalone="no"?>
<!-- Created with Inkscape (http://www.inkscape.org/) -->

<svg
   width="210mm"
   height="297mm"
   viewBox="0 0 210 297"
   version="1.1"
   id="svg1"
   xml:space="preserve"
   sodipodi:docname="hilbert.svg"
   inkscape:version="1.3.2 (091e20e, 2023-11-25, custom)"
   xmlns:inkscape="http://www.inkscape.org/namespaces/inkscape"
   xmlns:sodipodi="http://sodipodi.sourceforge.net/DTD/sodipodi-0.dtd"
   xmlns="http://www.w3.org/2000/svg"
   xmlns:svg="http://www.w3.org/2000/svg"><sodipodi:namedview
     id="namedview1"
     pagecolor="#ffffff"
     bordercolor="#666666"
     borderopacity="1.0"
     inkscape:showpageshadow="2"
     inkscape:pageopacity="0.0"
     inkscape:pagecheckerboard="0"
     inkscape:deskcolor="#d1d1d1"
     inkscape:document-units="mm"
     showguides="false"
     inkscape:zoom="1.9880533"
     inkscape:cx="196.92631"
     inkscape:cy="137.57176"
     inkscape:window-width="1920"
     inkscape:window-height="1009"
     inkscape:window-x="-8"
     inkscape:window-y="-8"
     inkscape:window-maximized="1"
     inkscape:current-layer="svg1" /><defs
     id="defs1" /><g
     inkscape:label="Layer 1"
     inkscape:groupmode="layer"
     id="layer1" /><path
     style="fill:none;fill-opacity:1;stroke:#000000;stroke-width:0.264583;stroke-linecap:butt;stroke-linejoin:miter;stroke-opacity:1"
     d="m 39.819791,39.819791 v -2.645833 h -2.645833 v 2.645833 h -2.645833 -2.645834 v -2.645833 h 2.645834 v -2.645833 h -2.645834 v -2.645834 h 2.645834 2.645833 v 2.645834 h 2.645833 v -2.645834 -2.645833 h -2.645833 v -2.645833 h 2.645833 v -2.645834 -2.645833 h -2.645833 v 2.645833 h -2.645833 v -2.645833 h -2.645834 v 2.645833 2.645834 h 2.645834 v 2.645833 h -2.645834 -2.645833 -2.645833 v -2.645833 h 2.645833 v -2.645834 -2.645833 h -2.645833 v 2.645833 h -2.645834 v -2.645833 h -2.645833 v 2.645833 2.645834 h 2.645833 v 2.645833 h -2.645833 v 2.645833 2.645834 h 2.645833 v -2.645834 h 2.645834 2.645833 v 2.645834 h -2.645833 v 2.645833 h 2.645833 v 2.645833 h -2.645833 -2.645834 v -2.645833 h -2.645833 v 2.645833 h -2.645833 -2.645834 v -2.645833 h 2.645834 v -2.645833 -2.645834 h -2.645834 v 2.645834 h -2.645833 v -2.645834 h -2.645833 v 2.645834 2.645833 h 2.645833 v 2.645833 H 10.715625 8.0697912 v -2.645833 h -2.645833 v 2.645833 H 2.7781249 0.1322915 V 37.173958 H 2.7781249 V 34.528125 H 0.1322915 v -2.645834 h 2.6458334 2.6458333 v 2.645834 h 2.645833 v -2.645834 -2.645833 -2.645833 h -2.645833 v 2.645833 H 2.7781249 0.1322915 V 26.590625 H 2.7781249 V 23.944791 H 0.1322915 v -2.645833 h 2.6458334 2.6458333 v 2.645833 h 2.645833 v -2.645833 h 2.6458338 2.645833 v 2.645833 h -2.645833 v 2.645834 2.645833 h 2.645833 v -2.645833 h 2.645833 v 2.645833 h 2.645834 v -2.645833 -2.645834 h -2.645834 v -2.645833 h 2.645834 v -2.645833 h -2.645834 v -2.645834 h 2.645834 v -2.645833 -2.645833 h -2.645834 v 2.645833 h -2.645833 v -2.645833 h -2.645833 v 2.645833 2.645833 h 2.645833 v 2.645834 H 10.715625 8.0697912 v -2.645834 h -2.645833 v 2.645834 H 2.7781249 0.1322915 V 16.007291 H 2.7781249 V 13.361458 H 0.1322915 v -2.645833 h 2.6458334 2.6458333 v 2.645833 h 2.645833 V 10.715625 8.0697912 5.4239582 h -2.645833 v 2.645833 H 2.7781249 0.1322915 V 5.4239582 H 2.7781249 V 2.7781248 H 0.1322915 V 0.1322915 h 2.6458334 2.6458333 v 2.6458333 h 2.645833 V 0.1322915 h 2.6458338 2.645833 v 2.6458333 h -2.645833 v 2.6458334 2.645833 h 2.645833 v -2.645833 h 2.645833 v 2.645833 h 2.645834 V 5.4239582 2.7781248 H 16.007291 V 0.1322915 h 2.645834 2.645833 v 2.6458333 h 2.645833 V 0.1322915 h 2.645834 2.645833 v 2.6458333 h -2.645833 v 2.6458334 h 2.645833 v 2.645833 h -2.645833 -2.645834 v -2.645833 h -2.645833 v 2.645833 2.6458338 h 2.645833 v 2.645833 h -2.645833 v 2.645833 2.645834 h 2.645833 v -2.645834 h 2.645834 v 2.645834 h 2.645833 v -2.645834 -2.645833 h -2.645833 v -2.645833 h 2.645833 2.645833 2.645834 v 2.645833 h -2.645834 v 2.645833 2.645834 h 2.645834 v -2.645834 h 2.645833 v 2.645834 h 2.645833 v -2.645834 -2.645833 h -2.645833 v -2.645833 h 2.645833 V 8.0697912 5.4239582 h -2.645833 v 2.645833 h -2.645833 -2.645834 v -2.645833 h 2.645834 V 2.7781248 H 31.882291 V 0.1322915 h 2.645834 2.645833 v 2.6458333 h 2.645833 V 0.1322915"
     id="path1" /></svg>
