<?xml version="1.0" encoding="UTF-8" standalone="no"?>
<!-- Created with Inkscape (http://www.inkscape.org/) -->

<svg
   width="210mm"
   height="297mm"
   viewBox="0 0 210 297"
   version="1.1"
   id="svg1"
   inkscape:version="1.3.2 (091e20e, 2023-11-25, custom)"
   sodipodi:docname="name.svg"
   xmlns:inkscape="http://www.inkscape.org/namespaces/inkscape"
   xmlns:sodipodi="http://sodipodi.sourceforge.net/DTD/sodipodi-0.dtd"
   xmlns="http://www.w3.org/2000/svg"
   xmlns:svg="http://www.w3.org/2000/svg">
  <sodipodi:namedview
     id="namedview1"
     pagecolor="#ffffff"
     bordercolor="#666666"
     borderopacity="1.0"
     inkscape:showpageshadow="2"
     inkscape:pageopacity="0.0"
     inkscape:pagecheckerboard="0"
     inkscape:deskcolor="#d1d1d1"
     inkscape:document-units="mm"
     inkscape:zoom="2.811532"
     inkscape:cx="205.04835"
     inkscape:cy="146.00581"
     inkscape:window-width="1920"
     inkscape:window-height="1009"
     inkscape:window-x="-8"
     inkscape:window-y="-8"
     inkscape:window-maximized="1"
     inkscape:current-layer="layer1" />
  <defs
     id="defs1" />
  <g
     inkscape:label="Layer 1"
     inkscape:groupmode="layer"
     id="layer1">
    <path
       id="path2"
       style="font-weight:bold;font-size:21.5138px;line-height:1.25;font-family:Constantia;-inkscape-font-specification:'Constantia Bold';font-variant-ligatures:none;text-align:center;text-anchor:middle;stroke-width:0.50423"
       d="M 70.8897 1.96319 C 70.3021 1.92417 69.7109 1.95145 69.13 2.04062 C 68.5472 2.1301 67.9748 2.2819 67.4269 2.49159 C 66.8752 2.70272 66.3484 2.97254 65.8608 3.29651 C 65.3689 3.62335 64.917 4.0053 64.5197 4.43773 C 64.1231 4.86944 63.781 5.35145 63.5081 5.87914 C 63.2436 6.39059 63.0441 6.94495 62.9231 7.538 C 62.7406 8.15993 62.634 8.81095 62.6018 9.46878 C 62.57 10.1213 62.6114 10.7804 62.7248 11.4246 C 62.8388 12.0723 63.0257 12.7049 63.2841 13.3002 C 63.5468 13.9054 63.8834 14.4721 64.2926 14.9771 C 64.7034 15.4841 65.1874 15.9288 65.7432 16.2877 C 66.2756 16.6315 66.8738 16.8966 67.5367 17.0623 C 68.094 17.2461 68.6736 17.3719 69.2619 17.4406 C 69.8467 17.5089 70.44 17.5208 71.0288 17.477 C 71.6183 17.4331 72.2031 17.3334 72.77 17.1786 C 73.3423 17.0224 73.8962 16.8101 74.4181 16.5426 C 74.9451 16.2724 75.4395 15.9459 75.8871 15.5638 C 76.3334 15.1829 76.7332 14.7467 77.0727 14.2562 C 77.4004 13.7827 77.6718 13.2584 77.8742 12.6842 C 78.1078 12.0757 78.2728 11.4243 78.3663 10.7553 C 78.4577 10.101 78.4807 9.42994 78.4327 8.76558 C 78.3845 8.09836 78.2646 7.43793 78.0703 6.80821 C 77.872 6.16522 77.5961 5.55425 77.2397 5.00074 C 76.8796 4.44138 76.4373 3.94072 75.9099 3.52501 C 75.4057 3.12757 74.8236 2.80778 74.1611 2.58862 C 73.641 2.38536 73.1019 2.23434 72.5534 2.13146 C 72.0049 2.02859 71.4471 1.97386 70.8897 1.96319 Z M 21.1181 2.29753 C 20.6282 2.30127 19.9542 2.28834 19.3083 2.30728 C 18.5756 2.32875 17.8791 2.39122 17.5281 2.56547 C 17.107 2.77454 17.1832 3.14452 18.2915 3.79771 C 18.1953 4.201 18.2276 4.74662 18.2889 5.32961 C 18.3419 5.83443 18.4167 6.36729 18.4486 6.86001 C 18.4878 7.4653 18.4623 8.01004 18.2524 8.36789 C 18.035 8.73855 17.6197 8.90871 16.8734 8.73797 C 16.3733 8.71138 15.8698 8.7202 15.3663 8.7344 C 14.8628 8.74859 14.3594 8.76816 13.8599 8.76304 C 13.3544 8.75787 12.8528 8.72743 12.3588 8.6406 C 12.1328 8.19087 12.0121 7.65161 11.9701 7.07956 C 11.9315 6.55459 11.959 6.00201 12.0321 5.46563 C 12.1084 4.90577 12.2343 4.36356 12.3862 3.88886 C 12.5944 3.23834 12.8516 2.71458 13.0972 2.44585 C 12.6556 2.49411 11.9468 2.43973 11.1865 2.37935 C 10.5428 2.32823 9.86208 2.27281 9.2755 2.27179 C 8.32587 2.27013 7.62286 2.41103 7.72235 2.94351 C 8.25073 3.25026 8.58118 3.67206 8.78037 4.17012 C 8.97257 4.65069 9.04257 5.20226 9.05028 5.78997 C 9.0572 6.31835 9.01377 6.87595 8.96352 7.43744 C 8.91408 7.98993 8.85803 8.54619 8.83685 9.08209 C 8.81385 9.66382 8.83195 10.2215 8.9442 10.7244 C 8.96138 11.2453 8.98069 11.8047 8.98365 12.3685 C 8.98656 12.9229 8.97366 13.4815 8.92738 14.0119 C 8.87623 14.5982 8.78429 15.1501 8.62784 15.6237 C 8.43374 16.2113 8.14032 16.6783 7.70228 16.9411 C 8.23785 16.9698 8.91477 17.0487 9.61763 17.1052 C 10.2657 17.1573 10.9358 17.1904 11.5375 17.1476 C 12.2945 17.0937 12.9431 16.9197 13.3034 16.5122 C 12.6496 16.259 12.2999 15.8046 12.1265 15.2344 C 11.9678 14.7126 11.9567 14.094 11.9954 13.4438 C 12.0305 12.8544 12.1065 12.239 12.1504 11.6466 C 12.1984 10.9998 12.208 10.3803 12.0845 9.8516 C 12.5813 9.86508 13.0832 9.86564 13.5866 9.86133 C 14.0875 9.85705 14.5899 9.84796 15.0902 9.84201 C 15.5942 9.83602 16.096 9.83322 16.5921 9.84173 C 17.1 9.85045 17.6019 9.87103 18.0938 9.9122 C 18.1138 10.4545 18.2119 11.0931 18.3047 11.7629 C 18.389 12.3718 18.4688 13.0064 18.4815 13.618 C 18.4952 14.276 18.4312 14.9073 18.2113 15.4511 C 17.9867 16.0067 17.5994 16.471 16.9661 16.7789 C 17.4082 16.8695 17.9246 16.9553 18.4704 17.022 C 18.9636 17.0822 19.4809 17.1267 19.9893 17.1448 C 20.519 17.1638 21.0391 17.1541 21.5121 17.1037 C 22.0944 17.0417 22.6055 16.918 22.9757 16.7101 C 22.377 16.4315 21.9899 16.0326 21.7462 15.5521 C 21.5 15.0664 21.4003 14.4973 21.377 13.8844 C 21.3561 13.3369 21.3962 12.7544 21.4472 12.1654 C 21.497 11.5904 21.5571 11.0092 21.5811 10.448 C 21.6069 9.8424 21.5906 9.26019 21.4735 8.73451 C 21.5096 8.21258 21.4956 7.64478 21.4788 7.07001 C 21.4624 6.5094 21.4433 5.94216 21.4653 5.4044 C 21.4897 4.80709 21.5649 4.24614 21.7507 3.77104 C 21.9556 3.24717 22.2952 2.82766 22.8499 2.57887 C 22.3192 2.28191 21.7035 2.28111 21.1181 2.29753 Z M 39.794 2.30115 C 38.8819 2.3661 38.5393 2.4654 38.4985 2.61392 C 38.4395 2.82832 39.0091 3.14529 39.4013 3.60959 C 39.687 3.94772 39.8785 4.36399 39.6647 4.87568 C 39.6746 5.43949 39.681 6.00429 39.6853 6.56961 C 39.6895 7.13337 39.6917 7.69765 39.6931 8.26194 C 39.6945 8.82678 39.6951 9.39163 39.6965 9.95601 C 39.6978 10.5211 39.6998 11.0858 39.7038 11.6494 C 39.7079 12.2153 39.714 12.7802 39.7236 13.3436 C 39.7332 13.9092 39.7464 14.4733 39.7644 15.0355 C 39.5245 15.665 39.0068 16.1591 38.7067 16.5049 C 38.3131 16.9584 38.2937 17.1569 39.7656 17.0715 C 40.4348 17.0476 41.1006 17.0268 41.7643 17.0134 C 42.4324 17 43.0985 16.9941 43.764 17.0005 C 44.4303 17.0068 45.096 17.0254 45.7628 17.0607 C 46.4256 17.0959 47.0894 17.1476 47.7556 17.2204 C 48.2904 17.1912 48.643 16.7572 48.8493 16.1826 C 49.0213 15.7035 49.0914 15.1266 49.0804 14.605 C 49.0646 13.856 48.8813 13.2212 48.5919 13.154 C 48.3549 13.099 48.0467 13.4246 47.7008 14.3798 C 47.655 15.0251 47.4398 15.4132 47.1219 15.6436 C 46.7623 15.9042 46.2713 15.9631 45.7456 15.9645 C 45.2716 15.9658 44.7693 15.9204 44.3095 15.9339 C 43.3443 16.184 42.9485 15.8593 42.8127 15.2733 C 42.6967 14.7727 42.7703 14.0815 42.8406 13.395 C 42.9123 12.6951 42.9805 12.0001 42.8407 11.5174 C 42.9271 10.989 42.9431 10.4128 42.9267 9.8143 C 42.9114 9.25897 42.8681 8.68447 42.8269 8.1112 C 42.7855 7.53504 42.7463 6.96012 42.7397 6.40715 C 42.7326 5.80627 42.7642 5.2313 42.8737 4.70882 C 42.9968 4.12129 43.2183 3.60014 43.5943 3.18313 C 44.4878 2.6311 44.0599 2.4181 43.2227 2.34429 C 42.7304 2.30089 42.0964 2.30562 41.5063 2.31784 C 40.678 2.335 39.9362 2.36692 39.794 2.30115 Z M 52.1999 2.30115 C 51.2878 2.36612 50.9453 2.46542 50.9044 2.61394 C 50.8454 2.82833 51.415 3.14529 51.8073 3.60958 C 52.0929 3.94771 52.2845 4.36398 52.0707 4.87568 C 52.0806 5.43949 52.087 6.00429 52.0913 6.5696 C 52.0955 7.13337 52.0976 7.69764 52.099 8.26193 C 52.1004 8.82677 52.1011 9.39163 52.1024 9.956 C 52.1038 10.5211 52.1058 11.0858 52.1098 11.6494 C 52.1138 12.2153 52.1199 12.7802 52.1295 13.3436 C 52.1392 13.9092 52.1523 14.4733 52.1703 15.0355 C 51.9304 15.665 51.4128 16.1591 51.1127 16.5049 C 50.7191 16.9584 50.6997 17.1569 52.1716 17.0715 C 52.8408 17.0476 53.5066 17.0268 54.1704 17.0134 C 54.8384 17 55.5045 16.9941 56.17 17.0005 C 56.8363 17.0068 57.5021 17.0254 58.1688 17.0607 C 58.8316 17.0959 59.4954 17.1476 60.1616 17.2204 C 60.6963 17.1911 61.049 16.7571 61.2553 16.1825 C 61.4273 15.7034 61.4975 15.1265 61.4866 14.605 C 61.4708 13.856 61.2877 13.2212 60.9983 13.154 C 60.7613 13.099 60.4531 13.4246 60.107 14.3798 C 60.0611 15.0251 59.8458 15.4131 59.5279 15.6435 C 59.1683 15.9041 58.6773 15.9631 58.1516 15.9645 C 57.6776 15.9658 57.1753 15.9204 56.7155 15.9339 C 55.7503 16.1841 55.3545 15.8593 55.2187 15.2733 C 55.1027 14.7727 55.1763 14.0815 55.2466 13.395 C 55.3183 12.6951 55.3865 12.0001 55.2467 11.5174 C 55.333 10.989 55.3491 10.4128 55.3326 9.8143 C 55.3173 9.25898 55.274 8.68448 55.2328 8.11121 C 55.1915 7.53505 55.1522 6.96014 55.1457 6.40717 C 55.1387 5.80628 55.1703 5.23132 55.2798 4.70883 C 55.403 4.12131 55.6247 3.60015 56.0007 3.18313 C 56.8943 2.63105 56.4664 2.41806 55.629 2.34427 C 55.1366 2.30087 54.5025 2.30562 53.9124 2.31785 C 53.0839 2.33502 52.3421 2.36695 52.1999 2.30115 Z M 25.7064 2.30735 C 24.7044 2.63571 25.5021 2.8893 26.1911 3.32722 C 26.7238 3.6658 27.1915 4.11456 26.7122 4.79325 C 26.7164 5.38747 26.7214 5.98225 26.7265 6.57735 C 26.7315 7.17123 26.7366 7.76542 26.7408 8.35968 C 26.745 8.95387 26.7484 9.54812 26.7501 10.1422 C 26.7518 10.7368 26.7518 11.3313 26.7493 11.9253 C 26.7467 12.5203 26.7417 13.1148 26.7332 13.7087 C 26.7247 14.3037 26.7129 14.8981 26.6967 15.4916 C 26.4919 15.9854 25.9268 16.325 25.6041 16.5707 C 25.2221 16.8615 25.1793 17.021 26.4741 17.1494 C 27.0228 17.0862 27.5701 17.0444 28.1167 17.0192 C 28.6667 16.9939 29.2159 16.9854 29.7647 16.9889 C 30.3146 16.9925 30.8641 17.0081 31.4136 17.0308 C 31.9621 17.0535 32.5107 17.0834 33.0599 17.1155 C 33.608 17.1476 34.1566 17.182 34.7063 17.2138 C 35.2665 17.1515 35.6295 16.7361 35.8396 16.2 C 36.0292 15.7161 36.0943 15.134 36.0673 14.6242 C 36.0249 13.8245 35.7559 13.2031 35.3856 13.4198 C 35.1671 13.5476 34.9133 13.9673 34.6502 14.8143 C 34.5482 15.734 33.9868 15.9499 33.3014 15.9705 C 32.655 15.9898 31.8981 15.8355 31.3121 15.9339 C 30.5513 16.0972 30.1449 15.9032 29.9433 15.5035 C 29.755 15.1303 29.7453 14.5776 29.7923 13.9689 C 29.8311 13.4667 29.9085 12.9263 29.956 12.4172 C 30.0116 11.8217 30.0264 11.269 29.8908 10.8699 C 30.0552 10.1136 30.4722 9.84363 30.9711 9.84898 C 31.4465 9.85407 31.9962 10.1092 32.4726 10.4317 C 33.0475 10.8209 33.5155 11.3083 33.6169 11.5727 C 33.9064 11.2075 34.0234 10.4836 34.0196 9.74657 C 34.016 9.03288 33.899 8.30686 33.7157 7.88214 C 33.4649 7.30128 33.0898 7.28399 32.7103 8.63257 C 32.1207 9.02674 31.5929 9.20175 31.1526 9.2015 C 30.532 9.20113 30.0854 8.85243 29.8851 8.27836 C 29.7317 7.83889 29.7226 7.26735 29.8902 6.61888 L 29.8902 5.03647 L 29.8902 3.45405 L 31.246 3.45405 L 32.6008 3.45405 L 33.9556 3.45405 C 33.9556 3.97156 34.07 4.47571 34.237 4.87577 C 34.5175 5.54784 34.9463 5.92616 35.2302 5.58062 C 35.3942 5.38096 35.5099 4.93963 35.5206 4.17365 C 35.8804 3.26493 35.7398 2.76519 35.3092 2.50528 C 34.9047 2.26112 34.2443 2.22859 33.5023 2.26746 C 32.9116 2.2984 32.2693 2.37459 31.6633 2.42528 C 30.9546 2.48457 30.2955 2.50898 29.8268 2.38537 C 29.3689 2.38035 28.9103 2.38395 28.4517 2.38633 C 27.9934 2.38871 27.535 2.38987 27.0773 2.37998 C 26.6195 2.37009 26.1623 2.34916 25.7064 2.30735 Z M 70.2236 2.91558 C 70.8664 2.89591 71.4513 3.02438 71.9734 3.26522 C 72.5185 3.51665 72.995 3.89056 73.3973 4.34625 C 73.787 4.78777 74.107 5.30606 74.352 5.86412 C 74.5928 6.41241 74.7611 6.99908 74.8521 7.58906 C 74.9458 8.19657 74.9574 8.80759 74.8816 9.38379 C 74.9108 9.92982 74.9121 10.5303 74.8676 11.1435 C 74.8255 11.7237 74.7425 12.3152 74.6032 12.8826 C 74.4594 13.4685 74.2557 14.0286 73.9753 14.5239 C 73.6798 15.0458 73.2992 15.4957 72.8139 15.8278 C 72.3625 16.1368 71.8204 16.344 71.1719 16.4124 C 70.4895 16.5226 69.8759 16.4556 69.3314 16.255 C 68.7457 16.0392 68.2401 15.6687 67.8151 15.1976 C 67.4105 14.7492 67.079 14.2095 66.8212 13.6254 C 66.5712 13.0591 66.3904 12.4509 66.2793 11.8435 C 66.1629 11.207 66.1231 10.5712 66.1604 9.98515 C 66.155 9.41378 66.1667 8.78905 66.2195 8.15496 C 66.27 7.54794 66.3581 6.93234 66.5048 6.34678 C 66.6585 5.7337 66.8765 5.15354 67.1829 4.65061 C 67.5044 4.12294 67.9233 3.68028 68.4674 3.3738 C 68.9485 3.10284 69.5274 2.93831 70.2236 2.91558 Z M 31.0348 29.6375 C 30.4472 29.5984 29.8559 29.6257 29.275 29.7148 C 28.6921 29.8043 28.1197 29.9561 27.5717 30.1657 C 27.02 30.3769 26.4932 30.6467 26.0056 30.9706 C 25.5136 31.2975 25.0616 31.6794 24.6643 32.1119 C 24.2677 32.5436 23.9256 33.0256 23.6527 33.5534 C 23.3882 34.0648 23.1887 34.6192 23.0676 35.2123 C 22.8851 35.8343 22.7785 36.4853 22.7464 37.1432 C 22.7145 37.7957 22.7559 38.4549 22.8694 39.099 C 22.9834 39.7468 23.1703 40.3794 23.4287 40.9747 C 23.6914 41.5799 24.0281 42.1467 24.4373 42.6516 C 24.8482 43.1586 25.3323 43.6033 25.8881 43.9623 C 26.4205 44.3061 27.0187 44.5712 27.6816 44.7369 C 28.239 44.9207 28.8185 45.0466 29.4069 45.1154 C 29.9916 45.1837 30.585 45.1956 31.1737 45.1518 C 31.7632 45.1079 32.3481 45.0082 32.915 44.8534 C 33.4872 44.6972 34.0412 44.4849 34.5631 44.2173 C 35.0901 43.9471 35.5844 43.6205 36.032 43.2384 C 36.4783 42.8574 36.8781 42.4213 37.2175 41.9307 C 37.5452 41.4571 37.8165 40.9328 38.0189 40.3585 C 38.2524 39.7501 38.4174 39.0987 38.5108 38.4297 C 38.6022 37.7754 38.6253 37.1043 38.5773 36.44 C 38.529 35.7728 38.4092 35.1123 38.2149 34.4826 C 38.0166 33.8396 37.7407 33.2287 37.3844 32.6751 C 37.0244 32.1158 36.5821 31.6151 36.0548 31.1994 C 35.5506 30.8019 34.9685 30.4821 34.3061 30.2629 C 33.786 30.0596 33.2468 29.9086 32.6984 29.8057 C 32.15 29.7029 31.5922 29.6482 31.0348 29.6375 Z M 13.1827 29.8798 C 12.825 30.2859 12.5295 30.7609 12.2748 31.281 C 12.0374 31.7656 11.8355 32.2894 11.6516 32.8331 C 11.4756 33.3535 11.3161 33.8921 11.158 34.432 C 11.0004 34.9703 10.8442 35.5099 10.6743 36.0339 C 10.4976 36.5788 10.3062 37.1068 10.083 37.5992 C 9.86111 38.3569 9.65518 39.0942 9.46008 39.4693 C 9.20112 39.9672 8.96121 39.8271 8.7283 38.2505 C 8.68608 37.7347 8.52133 37.1724 8.30646 36.5892 C 8.11461 36.0686 7.88281 35.5313 7.66257 34.9958 C 7.43772 34.449 7.22493 33.9041 7.07904 33.3804 C 6.91076 32.7764 6.83151 32.2007 6.92546 31.6833 C 7.0224 31.1495 7.30371 30.6778 7.86186 30.301 C 7.43185 30.2003 6.8946 30.1168 6.31394 30.0587 C 5.81147 30.0084 5.2765 29.9772 4.75037 29.9704 C 4.20355 29.9633 3.66628 29.9826 3.185 30.0343 C 2.54874 30.1027 2.01032 30.2276 1.67701 30.4232 C 2.21682 30.645 2.64259 30.965 2.98752 31.3539 C 3.34024 31.7515 3.60843 32.2212 3.82762 32.7316 C 4.03539 33.2155 4.19912 33.736 4.34904 34.2665 C 4.49593 34.7863 4.62957 35.3157 4.77841 35.8296 C 4.93317 36.364 5.10436 36.8817 5.32396 37.3546 C 5.55539 37.9658 5.75423 38.5991 5.94312 39.2396 C 6.12981 39.8727 6.30678 40.5129 6.49589 41.1457 C 6.68681 41.7845 6.89011 42.4158 7.12827 43.0246 C 7.37209 43.648 7.65245 44.2478 7.99349 44.8083 C 8.60247 44.5612 9.03164 44.0729 9.36123 43.4514 C 9.64645 42.9136 9.8571 42.2759 10.0452 41.6085 C 10.2218 40.9816 10.3786 40.3284 10.5585 39.7069 C 10.7527 39.0362 10.9738 38.4025 11.2762 37.8786 C 11.4224 37.4148 11.5673 36.9273 11.7099 36.5145 C 11.9714 35.7574 12.2254 35.2512 12.4671 35.6017 C 12.5953 35.7877 12.72 36.215 12.8405 36.974 C 13.011 37.4802 13.1751 37.9896 13.3361 38.5004 C 13.4968 39.0103 13.6545 39.5218 13.8125 40.033 C 13.9705 40.5444 14.1287 41.0556 14.2907 41.565 C 14.4529 42.0752 14.6187 42.5837 14.7916 43.0887 C 14.9652 43.5957 15.1458 44.0992 15.3369 44.5977 C 16.0718 44.6489 16.5694 44.252 16.9405 43.6189 C 17.2364 43.1141 17.4519 42.459 17.6431 41.7611 C 17.8169 41.127 17.9707 40.4575 18.1466 39.8332 C 18.3467 39.1229 18.5756 38.4711 18.8951 37.9966 C 19.1399 37.439 19.3438 36.857 19.5347 36.269 C 19.7248 35.6832 19.902 35.0915 20.0935 34.5118 C 20.2892 33.9197 20.4998 33.3402 20.7547 32.7925 C 21.0171 32.2287 21.3264 31.6986 21.7143 31.2233 C 22.0904 30.7626 22.5403 30.3534 23.0932 30.0147 C 22.6246 30.0319 21.8746 29.9971 21.1282 29.9906 C 20.3756 29.9842 19.6266 30.0066 19.1734 30.1402 C 18.5671 30.319 18.4904 30.6969 19.6429 31.4712 C 19.5174 32.0366 19.3722 32.6006 19.2119 33.1622 C 19.0525 33.7204 18.8782 34.2763 18.6933 34.8293 C 18.5087 35.3816 18.3136 35.931 18.1125 36.4765 C 17.9105 37.0246 17.7024 37.5688 17.4928 38.1085 C 17.2803 38.6557 17.0662 39.1981 16.8553 39.7351 C 16.6618 39.2129 16.4787 38.6839 16.3025 38.1502 C 16.1275 37.6204 15.9594 37.086 15.7946 36.5491 C 15.6307 36.0148 15.4701 35.4781 15.3095 34.9411 C 15.1491 34.4047 14.9888 33.8681 14.8252 33.3333 C 14.6611 32.7969 14.4936 32.2623 14.3195 31.7317 C 14.1443 31.1979 13.9624 30.6681 13.7703 30.1445 L 13.5234 29.9422 Z M 74.2466 29.9563 C 73.7855 30.0494 73.267 30.074 72.7277 30.0697 C 72.2276 30.0658 71.7096 30.0371 71.203 30.0155 C 70.6709 29.9927 70.1514 29.9777 69.6781 30.0073 C 69.1013 30.0432 68.5933 30.1454 68.2153 30.3802 C 68.8352 30.6122 69.2382 30.983 69.4938 31.4476 C 69.7511 31.9152 69.859 32.478 69.8884 33.0901 C 69.9143 33.6296 69.8793 34.2074 69.8317 34.7924 C 69.7854 35.3618 69.7272 35.938 69.7018 36.4921 C 69.6741 37.096 69.6854 37.6737 69.7934 38.188 C 69.7715 38.7344 69.788 39.3141 69.8031 39.8962 C 69.8181 40.4733 69.8318 41.0528 69.8054 41.6046 C 69.7764 42.2105 69.6991 42.7831 69.5222 43.2825 C 69.3271 43.8332 69.0108 44.295 68.5047 44.6146 C 69.0909 44.6495 69.6829 44.6848 70.2783 44.715 C 70.8674 44.7449 71.4598 44.7698 72.0535 44.7847 C 72.645 44.7995 73.2378 44.8044 73.8297 44.7941 C 74.4227 44.7837 75.0148 44.7582 75.604 44.7125 C 76.1955 44.6665 76.7841 44.6001 77.3675 44.508 C 77.9917 44.4038 78.5723 44.2099 79.106 43.9426 C 79.6571 43.6664 80.158 43.3119 80.6048 42.8966 C 81.0503 42.4826 81.4419 42.0082 81.7759 41.4911 C 82.1054 40.981 82.3787 40.4293 82.5921 39.8528 C 82.804 39.2807 82.9569 38.684 83.0472 38.0794 C 83.1379 37.4722 83.1654 36.857 83.126 36.2504 C 83.0861 35.6355 82.9775 35.0294 82.7963 34.4497 C 82.6134 33.8646 82.3566 33.3063 82.022 32.7926 C 81.6939 32.2887 81.2908 31.8277 80.8091 31.4264 C 80.3404 31.081 79.837 30.8125 79.3105 30.605 C 78.7808 30.3963 78.2277 30.2493 77.663 30.148 C 77.1029 30.0474 76.5312 29.9917 75.9596 29.965 C 75.3847 29.9381 74.8098 29.9406 74.2466 29.9563 Z M 42.3886 29.9584 C 41.5605 29.7509 41.0471 29.9959 40.9438 30.3099 C 40.8338 30.6441 41.1886 31.0563 42.123 31.0839 C 42.1495 31.7429 42.1698 32.4024 42.185 33.0623 C 42.2003 33.7215 42.2105 34.3811 42.217 35.0408 C 42.2236 35.7001 42.2264 36.3594 42.2267 37.0187 C 42.2271 37.6783 42.225 38.3377 42.2217 38.9969 C 42.2184 39.6564 42.214 40.3156 42.2096 40.9744 C 42.2052 41.6345 42.2009 42.2942 42.198 42.9531 C 42.0743 43.6061 41.5144 43.9467 41.1464 44.1636 C 40.679 44.4392 40.5214 44.515 41.9618 44.778 C 42.4552 44.7606 43.1945 44.794 43.9223 44.7981 C 44.6802 44.8024 45.4258 44.7749 45.8685 44.6252 C 46.4433 44.4308 46.5073 44.0302 45.4245 43.2255 C 45.3505 42.6884 45.318 42.1448 45.3087 41.598 C 45.2995 41.0558 45.3132 40.5106 45.332 39.9658 C 45.3509 39.42 45.3749 38.8746 45.3861 38.3331 C 46.1195 38.2172 46.64 38.5549 47.0643 39.1202 C 47.413 39.5848 47.6967 40.2033 47.9801 40.8499 C 48.2428 41.4496 48.5054 42.0735 48.8193 42.6215 C 49.1703 43.2342 49.5854 43.7522 50.137 44.0356 C 50.4693 44.4304 50.9983 44.6977 51.5754 44.8547 C 52.1298 45.0056 52.7287 45.0548 53.24 45.0177 C 54.0596 44.9582 54.6545 44.6771 54.4814 44.2379 C 54.3745 43.9667 53.9746 43.6351 53.1538 43.2582 C 52.9564 42.8499 52.6339 42.3993 52.2687 41.9274 C 51.9527 41.5191 51.6047 41.0948 51.2783 40.6682 C 50.9375 40.2227 50.6203 39.7745 50.3874 39.3393 C 50.0989 38.7998 49.94 38.28 50.0268 37.8093 C 50.1088 37.3645 50.4102 36.9635 51.0287 36.6312 C 51.5574 36.2657 51.9463 35.8125 52.2062 35.3163 C 52.4893 34.7758 52.6192 34.1844 52.6099 33.6001 C 52.6004 33.0034 52.4456 32.4142 52.1603 31.8944 C 51.8785 31.3807 51.4692 30.9347 50.9467 30.6163 C 50.4729 30.3274 49.9061 30.1435 49.2569 30.1089 C 48.6887 29.9982 48.1175 29.9553 47.5448 29.9478 C 46.9727 29.9403 46.399 29.968 45.8253 29.9987 C 45.2513 30.0294 44.6772 30.063 44.1045 30.0672 C 43.5307 30.0714 42.9582 30.046 42.3886 29.9584 Z M 57.4838 29.9754 C 56.5717 30.0404 56.2291 30.1397 56.1883 30.2882 C 56.1293 30.5026 56.6989 30.8196 57.0912 31.2839 C 57.3769 31.622 57.5685 32.0383 57.3546 32.55 C 57.3646 33.1138 57.3709 33.6786 57.3752 34.2439 C 57.3794 34.8077 57.3816 35.3719 57.383 35.9362 C 57.3844 36.5011 57.385 37.0659 57.3864 37.6303 C 57.3877 38.1954 57.3897 38.76 57.3937 39.3237 C 57.3977 39.8896 57.4039 40.4545 57.4135 41.0179 C 57.4231 41.5835 57.4362 42.1476 57.4543 42.7097 C 57.2143 43.3393 56.6967 43.8334 56.3966 44.1792 C 56.003 44.6327 55.9836 44.8312 57.4555 44.7458 C 58.1247 44.7219 58.7905 44.7011 59.4542 44.6877 C 60.1223 44.6743 60.7884 44.6684 61.4539 44.6748 C 62.1202 44.6811 62.7859 44.6996 63.4527 44.735 C 64.1155 44.7701 64.7793 44.8218 65.4455 44.8947 C 65.9802 44.8655 66.3329 44.4315 66.5392 43.8569 C 66.7112 43.3777 66.7814 42.8008 66.7705 42.2793 C 66.7547 41.5303 66.5716 40.8955 66.2822 40.8283 C 66.0452 40.7733 65.7369 41.0989 65.3909 42.0541 C 65.345 42.6994 65.1298 43.0875 64.8118 43.3179 C 64.4522 43.5785 63.9613 43.6374 63.4355 43.6388 C 62.9615 43.6401 62.4592 43.5947 61.9994 43.6082 C 61.0342 43.8584 60.6384 43.5336 60.5026 42.9476 C 60.3866 42.447 60.4602 41.7557 60.5305 41.0693 C 60.6022 40.3693 60.6704 39.6744 60.5306 39.1917 C 60.6169 38.6633 60.633 38.0871 60.6165 37.4887 C 60.6013 36.9334 60.558 36.3589 60.5168 35.7857 C 60.4754 35.2095 60.4361 34.6346 60.4296 34.0817 C 60.4226 33.4809 60.4542 32.9059 60.5637 32.3835 C 60.6869 31.796 60.9086 31.2749 61.2846 30.8579 C 62.1782 30.3058 61.7502 30.0929 60.9129 30.0191 C 60.4204 29.9757 59.7864 29.9804 59.1962 29.9926 C 58.3678 30.0097 57.6259 30.0415 57.4838 29.9754 Z M 30.3682 30.5899 C 31.011 30.5703 31.596 30.6987 32.1181 30.9396 C 32.6632 31.1911 33.1398 31.565 33.5421 32.0207 C 33.9319 32.4623 34.2519 32.9806 34.4969 33.5387 C 34.7377 34.087 34.9061 34.6737 34.9971 35.2637 C 35.0908 35.8713 35.1024 36.4824 35.0266 37.0586 C 35.0558 37.6046 35.0571 38.2052 35.0126 38.8183 C 34.9705 39.3986 34.8874 39.9901 34.7481 40.5575 C 34.6042 41.1434 34.4004 41.7035 34.12 42.1988 C 33.8245 42.7207 33.4438 43.1706 32.9585 43.5027 C 32.507 43.8117 31.9649 44.0188 31.3164 44.0872 C 30.634 44.1974 30.0203 44.1303 29.4759 43.9297 C 28.8902 43.7138 28.3847 43.3433 27.9598 42.8722 C 27.5552 42.4236 27.2238 41.8839 26.966 41.2997 C 26.7161 40.7334 26.5354 40.1252 26.4243 39.5178 C 26.308 38.8812 26.2681 38.2454 26.3054 37.6594 C 26.3 37.0881 26.3117 36.4634 26.3644 35.8293 C 26.4149 35.2223 26.503 34.6066 26.6497 34.0211 C 26.8033 33.408 27.0212 32.8278 27.3276 32.3249 C 27.6493 31.7967 28.0686 31.3537 28.6135 31.0472 C 29.0942 30.7768 29.6727 30.6126 30.3682 30.5899 Z M 74.2973 30.8255 C 74.9651 30.7624 75.5816 30.8371 76.14 31.0212 C 76.7422 31.2197 77.2767 31.5456 77.735 31.9631 C 78.1887 32.3764 78.5677 32.8796 78.8636 33.4381 C 79.1513 33.9808 79.3605 34.5757 79.4837 35.1912 C 79.6057 35.8006 79.6433 36.4302 79.5892 37.0492 C 79.6775 37.6588 79.681 38.291 79.6028 38.9138 C 79.5248 39.5345 79.3657 40.146 79.1287 40.7165 C 78.8859 41.3007 78.5613 41.842 78.1583 42.3064 C 77.7493 42.7777 77.2595 43.1698 76.6924 43.4472 C 76.1596 43.7078 75.5587 43.8671 74.8924 43.8958 C 74.1751 44.0973 73.7097 44.0459 73.4104 43.8336 C 73.0322 43.5654 72.9194 43.0404 72.8987 42.4449 C 72.8814 41.9476 72.9284 41.4012 72.9387 40.914 C 72.9431 40.3095 72.9444 39.7042 72.944 39.0986 C 72.9436 38.4934 72.9414 37.888 72.9388 37.2827 C 72.9363 36.6772 72.9333 36.072 72.9314 35.4673 C 72.9295 34.8616 72.9286 34.2565 72.9302 33.6525 C 72.9317 33.0462 72.9356 32.4409 72.9434 31.8373 C 73.0693 31.2161 73.6712 30.7862 74.2973 30.8255 Z M 46.145 30.9289 C 46.7732 30.8338 47.3101 30.93 47.7514 31.159 C 48.2433 31.4144 48.6163 31.8348 48.8643 32.3392 C 49.0998 32.818 49.2225 33.3726 49.2273 33.9335 C 49.232 34.4837 49.1232 35.04 48.8958 35.537 C 48.6681 36.0349 48.3214 36.4732 47.8507 36.7861 C 47.2729 37.1873 46.7787 37.329 46.3798 37.2834 C 45.8386 37.2215 45.4731 36.8146 45.3132 36.2426 C 45.1873 35.7925 45.1887 35.2401 45.3321 34.6733 C 45.4455 34.2931 45.3947 33.7902 45.3333 33.2759 C 45.275 32.7874 45.2072 32.2886 45.2614 31.875 C 45.3241 31.396 45.5505 31.0312 46.145 30.9289 Z" />
  </g>
</svg>
