<?xml version="1.0" encoding="UTF-8" standalone="no"?>
<!-- Created with Inkscape (http://www.inkscape.org/) -->

<svg
   width="210mm"
   height="297mm"
   viewBox="0 0 210 297"
   version="1.1"
   id="svg1"
   xml:space="preserve"
   sodipodi:docname="semi_circle.svg"
   inkscape:version="1.3.2 (091e20e, 2023-11-25, custom)"
   xmlns:inkscape="http://www.inkscape.org/namespaces/inkscape"
   xmlns:sodipodi="http://sodipodi.sourceforge.net/DTD/sodipodi-0.dtd"
   xmlns="http://www.w3.org/2000/svg"
   xmlns:svg="http://www.w3.org/2000/svg"><sodipodi:namedview
     id="namedview1"
     pagecolor="#ffffff"
     bordercolor="#666666"
     borderopacity="1.0"
     inkscape:showpageshadow="2"
     inkscape:pageopacity="0.0"
     inkscape:pagecheckerboard="0"
     inkscape:deskcolor="#d1d1d1"
     inkscape:document-units="mm"
     showguides="false"
     inkscape:zoom="1.9880533"
     inkscape:cx="196.92631"
     inkscape:cy="137.57176"
     inkscape:window-width="1920"
     inkscape:window-height="1009"
     inkscape:window-x="-8"
     inkscape:window-y="-8"
     inkscape:window-maximized="1"
     inkscape:current-layer="layer1" /><defs
     id="defs1" /><g
     inkscape:label="Layer 1"
     inkscape:groupmode="layer"
     id="layer1"><path
       id="path1"
       style="fill:#000000;stroke:#ffffff;stroke-width:2.32065;stroke-linejoin:round;paint-order:markers stroke fill"
       d="m 1.222336,1.1603245 c -0.02323,0.2881624 -0.043902,0.5765268 -0.062012,0.8650654 6e-6,1.0733142 0.034634,2.1385286 0.1028274,3.194603 0.069104,1.0701342 0.172671,2.1308886 0.3096084,3.1811628 0.1385493,1.0626547 0.3112583,2.1145683 0.5169893,3.1546043 0.2076787,1.049913 0.4490175,2.087728 0.722836,3.112282 0.2761587,1.033355 0.5853769,2.053209 0.9264351,3.058365 0.3437182,1.013034 0.7197962,2.011148 1.126974,2.993083 0.4094179,0.987395 0.8502955,1.95839 1.321373,2.911785 0.4729174,0.957195 0.9762748,1.89659 1.5088125,2.816985 0.5346369,0.923995 1.0986739,1.82899 1.6908308,2.713385 0.5937169,0.886796 1.2157135,1.752991 1.8647095,2.597587 0.649937,0.845595 1.326933,1.669391 2.02971,2.470187 0.702776,0.800595 1.431313,1.577991 2.184328,2.330987 0.753056,0.752996 1.530592,1.481591 2.331288,2.184389 0.800895,0.702996 1.624991,1.380192 2.471047,2.030189 0.844395,0.648796 1.710391,1.270593 2.597186,1.86419 0.883995,0.591797 1.78859,1.155593 2.712185,1.68999 0.920596,0.532597 1.860191,1.035996 2.817586,1.508993 0.953594,0.471197 1.924989,0.912194 2.912584,1.321593 0.981795,0.406997 1.97959,0.782996 2.992384,1.126594 1.004995,0.340997 2.024588,0.649997 3.057784,0.926194 1.025194,0.273799 2.063588,0.515197 3.113983,0.722996 1.039795,0.2056 2.091388,0.378199 3.153584,0.516799 1.050394,0.136798 2.110988,0.240398 3.181182,0.309398 1.055595,0.0682 2.120189,0.102799 3.192983,0.102799 1.068394,0 2.133189,-0.035 3.192783,-0.104399 1.065994,-0.0698 2.12699,-0.1744 3.181183,-0.312998 1.058195,-0.1394 2.109789,-0.312999 3.152784,-0.520399 1.046394,-0.208199 2.084388,-0.450197 3.112383,-0.725596 1.030395,-0.276197 2.050989,-0.585797 3.059584,-0.928194 1.008794,-0.342598 2.005789,-0.717797 2.989584,-1.125194 0.985195,-0.407999 1.95679,-0.848196 2.913584,-1.319993 0.954995,-0.470997 1.89499,-0.973196 2.818386,-1.506393 0.921795,-0.531997 1.82699,-1.094793 2.714188,-1.68759 0.884592,-0.590997 1.751184,-1.211794 2.598184,-1.86179 0.843393,-0.647197 1.667393,-1.323393 2.470585,-2.027789 0.7984,-0.700198 1.576192,-1.428393 2.331792,-2.183989 0.755393,-0.755396 1.483585,-1.533192 2.183785,-2.331387 0.7046,-0.803196 1.380792,-1.627392 2.028192,-2.470987 0.649793,-0.846796 1.270593,-1.713191 1.861385,-2.597387 0.5928,-0.886995 1.1554,-1.79219 1.687592,-2.713785 0.5334,-0.923995 1.035993,-1.86439 1.507193,-2.819785 0.4712,-0.955595 0.910792,-1.92579 1.318392,-2.909585 0.408,-0.985075 0.7838,-1.983489 1.126792,-2.993643 0.3422,-1.008196 0.6518,-2.02809 0.9278,-3.058065 0.2754,-1.027974 0.517593,-2.065989 0.725793,-3.112462 0.2076,-1.043416 0.3814,-2.0952296 0.5206,-3.1538643 0.1388,-1.0539942 0.2434,-2.1147686 0.3132,-3.1807428 0.06938,-1.0597344 0.1044,-2.1246288 0.1044,-3.193123 -0.0046,-0.2884186 -0.012,-0.576783 -0.02177,-0.8650654 H 95.564724 92.312539 89.058354 85.804977 82.552593 79.298008 76.044627 72.792444 69.53806 66.284479 63.031896 59.777313 56.52393 53.271548 50.016965 46.763582 43.5112 40.256617 37.003434 33.751252 30.497069 27.244286 23.992704 20.738921 17.486038 14.234216 10.980273 7.7276502 4.4760672 Z" /></g></svg>
