<?xml version="1.0" encoding="UTF-8" standalone="no"?>
<!-- Created with Inkscape (http://www.inkscape.org/) -->

<svg
   width="210mm"
   height="297mm"
   viewBox="0 0 210 297"
   version="1.1"
   id="svg1"
   inkscape:version="1.3.2 (091e20e, 2023-11-25, custom)"
   sodipodi:docname="zahra.svg"
   xmlns:inkscape="http://www.inkscape.org/namespaces/inkscape"
   xmlns:sodipodi="http://sodipodi.sourceforge.net/DTD/sodipodi-0.dtd"
   xmlns="http://www.w3.org/2000/svg"
   xmlns:svg="http://www.w3.org/2000/svg">
  <sodipodi:namedview
     id="namedview1"
     pagecolor="#ffffff"
     bordercolor="#666666"
     borderopacity="1.0"
     inkscape:showpageshadow="2"
     inkscape:pageopacity="0.0"
     inkscape:pagecheckerboard="0"
     inkscape:deskcolor="#d1d1d1"
     inkscape:document-units="mm"
     inkscape:zoom="3.9761067"
     inkscape:cx="202.96236"
     inkscape:cy="224.96881"
     inkscape:window-width="1920"
     inkscape:window-height="1009"
     inkscape:window-x="-8"
     inkscape:window-y="-8"
     inkscape:window-maximized="1"
     inkscape:current-layer="g5" />
  <defs
     id="defs1">
    <inkscape:path-effect
       effect="fillet_chamfer"
       id="path-effect8"
       is_visible="true"
       lpeversion="1"
       nodesatellites_param="F,0,0,1,0,0,0,1 @ F,0,0,1,0,1.3229167,0,1 @ F,0,0,1,0,1.3229167,0,1 @ F,0,0,1,0,0,0,1 @ F,0,0,1,0,1.3229167,0,1 @ F,0,0,1,0,1.3229167,0,1 @ F,0,0,1,0,0.42890529,0,1 @ F,0,0,1,0,1.3229167,0,1 @ F,0,0,1,0,0.42890529,0,1 @ F,0,0,1,0,1.3229167,0,1 @ F,0,0,1,0,1.3229167,0,1 @ F,0,0,1,0,1.3229167,0,1 @ F,0,0,1,0,0.39131024,0,1 @ F,0,0,1,0,0.39131024,0,1 @ F,0,0,1,0,1.3229167,0,1 @ F,0,0,1,0,1.3229167,0,1 @ F,0,0,1,0,1.3229167,0,1 @ F,0,0,1,0,1.3229167,0,1 @ F,0,0,1,0,1.3229167,0,1 @ F,0,0,1,0,1.3229167,0,1 @ F,0,0,1,0,1.3229167,0,1 @ F,0,0,1,0,1.3229167,0,1 @ F,0,0,1,0,1.3229167,0,1 @ F,0,0,1,0,1.3229167,0,1 @ F,0,0,1,0,1.3229167,0,1 @ F,0,0,1,0,1.3229167,0,1 @ F,0,0,1,0,1.3229167,0,1 @ F,0,0,1,0,1.3229167,0,1 @ F,0,0,1,0,1.3229167,0,1 @ F,0,0,1,0,1.3229167,0,1 @ F,0,0,1,0,1.3229167,0,1 @ F,0,0,1,0,1.3229167,0,1 @ F,0,0,1,0,1.3229167,0,1 @ F,0,0,1,0,1.3229167,0,1 @ F,0,0,1,0,1.3229167,0,1 @ F,0,0,1,0,0,0,1"
       radius="0"
       unit="px"
       method="auto"
       mode="F"
       chamfer_steps="1"
       flexible="false"
       use_knot_distance="true"
       apply_no_radius="true"
       apply_with_radius="true"
       only_selected="true"
       hide_knots="false" />
  </defs>
  <g
     inkscape:label="Layer 1"
     inkscape:groupmode="layer"
     id="layer1">
    <g
       inkscape:label="Hershey Text"
       style="fill:none;stroke:#000000;stroke-linecap:round;stroke-linejoin:round"
       id="g6">
      <g
         transform="translate(32.340072,78.9204)"
         id="g5">
        <path
           d="M 630,662 189,0 m 0,662 H 630 M 189,0 h 441"
           style="stroke-width:0.2422in"
           transform="scale(0.0112889,-0.0112889)"
           id="path1" />
        <path
           d="M 378,662 126,0 M 378,662 630,0 M 220,220 h 316"
           style="stroke-width:0.2422in"
           id="path2"
           transform="matrix(0.0112889,0,0,-0.0112889,7.11201,0)" />
        <path
           d="M 220,662 V 0 M 662,662 V 0 M 220,346 h 442"
           style="stroke-width:0.2422in"
           transform="matrix(0.0112889,0,0,-0.0112889,13.5128,0)"
           id="path3" />
        <path
           d="M 220,662 V 0 m 0,662 h 284 l 94,-32 32,-32 32,-62 V 472 L 630,410 598,378 504,346 H 220 M 441,346 662,0"
           style="stroke-width:0.2422in"
           transform="matrix(0.0112889,0,0,-0.0112889,21.336,0)"
           id="path4" />
        <path
           d="M 378,662 126,0 M 378,662 630,0 M 220,220 h 316"
           style="stroke-width:0.2422in"
           transform="matrix(0.0112889,0,0,-0.0112889,28.8093,0)"
           id="path5" />
        <path
           style="fill:none;stroke:#000000;stroke-width:0.264583px;stroke-linecap:butt;stroke-linejoin:miter;stroke-opacity:1"
           d="M 2.1336013,-7.4732515 H 7.1120065 L 2.1336013,-1.401061e-7 H 7.1120065 8.5344118 L 11.379214,-7.4732515 13.162861,-2.4835592 H 9.5955682 13.162861 L 14.224017,-1.401061e-7 h 1.772341 V -7.4732515 -3.9059592 H 20.98605 V -7.4732515 -1.401061e-7 h 2.833507 V -7.4732515 h 3.206047 l 1.061159,0.3612435 0.361243,0.3612436 0.361244,0.6999128 v 0.7224898 l -0.361244,0.6999129 -0.361243,0.3612435 -1.061159,0.3612462 h -0.7112 -2.494847 2.494847 L 28.80925,-1.4010614e-7 H 30.2317 L 33.076503,-7.4732515 l 1.783646,4.9896923 h -3.567292 3.567292 L 35.921305,-1.4010614e-7"
           id="path8" />
        <path
           style="fill:none;stroke:#000000;stroke-width:0.264583px;stroke-linecap:butt;stroke-linejoin:miter;stroke-opacity:1"
           d="M 2.56743,-25.357046 H 7.5458352 L 2.56743,-17.883795 h 4.9784052 1.4224053 l 2.8448025,-7.473251 1.783647,4.989692 h -3.567293 3.567293 l 1.061156,2.483559 h 1.772341 v -7.473251 3.567292 h 4.989692 v -3.567292 7.473251 h 2.833507 v -7.473251 h 3.206047 l 1.061159,0.361243 0.361243,0.361244 0.361244,0.699912 v 0.72249 l -0.361244,0.699913 -0.361243,0.361244 -1.061159,0.361246 h -0.7112 -2.494847 2.494847 l 2.494846,3.905959 h 1.42245 l 2.844803,-7.473251 1.783646,4.989692 h -3.567292 3.567292 l 1.061156,2.483559"
           id="path8-1" />
      </g>
    </g>
  </g>
</svg>
